<svg width="4062" height="919" viewBox="0 0 4062 919" fill="none" xmlns="http://www.w3.org/2000/svg">
<path fill-rule="evenodd" clip-rule="evenodd" d="M690.879 0.132127C699.959 0.332127 712.549 1.20213 718.879 2.06213C725.209 2.93213 735.329 4.81213 741.379 6.24213C747.429 7.67213 757.549 10.6021 763.879 12.7621C770.209 14.9121 781.459 19.6121 788.879 23.2121C796.299 26.8021 806.209 32.2421 810.879 35.3021C815.549 38.3521 822.979 43.6021 827.379 46.9621C831.779 50.3121 840.049 57.5621 845.769 63.0621C851.479 68.5721 859.739 77.3521 864.119 82.5721C868.509 87.7921 875.989 97.9221 880.739 105.072C885.499 112.222 892.839 124.822 897.049 133.072C901.269 141.322 906.729 153.022 909.189 159.072C911.649 165.122 915.719 176.372 918.219 184.072C920.729 191.772 923.919 202.352 925.309 207.572C926.689 212.792 929.389 224.952 931.299 234.572C933.219 244.192 935.699 259.502 936.819 268.572C937.939 277.642 939.359 291.142 939.969 298.572C940.589 306.002 941.099 326.252 941.099 343.572C941.099 360.892 940.589 382.502 939.969 391.572C939.349 400.642 937.949 416.392 936.859 426.572C935.769 436.752 933.759 451.932 932.379 460.322C931.009 468.712 928.519 481.982 926.859 489.822C925.209 497.662 922.709 508.342 921.309 513.572C919.909 518.802 916.949 528.922 914.739 536.072C912.519 543.222 908.219 555.592 905.179 563.572C902.139 571.552 896.199 585.272 891.969 594.072C887.739 602.872 881.649 614.572 878.429 620.072C875.219 625.572 868.769 635.692 864.099 642.572C859.419 649.442 852.179 659.342 847.999 664.572C843.809 669.802 834.089 680.532 826.389 688.422C818.679 696.312 807.949 706.442 802.529 710.922C797.109 715.402 788.339 722.202 783.029 726.022C777.719 729.842 768.649 735.852 762.879 739.372C757.109 742.892 746.529 748.702 739.379 752.292C732.229 755.882 721.209 760.952 714.879 763.552C708.549 766.152 697.079 770.342 689.379 772.852C681.679 775.372 669.979 778.782 663.379 780.442C656.779 782.092 645.299 784.582 637.879 785.972C630.459 787.362 619.209 789.182 612.879 790.022C606.549 790.852 596.209 792.062 589.879 792.702C582.009 793.512 538.459 794.012 451.879 794.302C366.049 794.592 318.949 794.362 305.379 793.602C294.379 792.992 278.399 791.602 269.879 790.512C261.359 789.422 247.849 787.202 239.879 785.572C231.909 783.952 219.309 780.822 211.879 778.622C204.449 776.432 193.199 772.662 186.879 770.252C180.559 767.842 170.199 763.372 163.879 760.322C157.559 757.262 147.429 751.752 141.379 748.062C135.329 744.382 125.429 737.632 119.379 733.072C113.329 728.502 103.909 720.562 98.4488 715.422C92.9888 710.282 84.6588 701.572 79.9388 696.072C75.2188 690.572 68.5988 682.242 65.2188 677.572C61.8488 672.902 56.0888 664.122 52.4288 658.072C48.7588 652.022 43.3588 642.122 40.4188 636.072C37.4788 630.022 33.2888 620.572 31.0988 615.072C28.9088 609.572 25.0788 598.772 22.5788 591.072C20.0888 583.372 16.6688 571.442 14.9988 564.572C13.3288 557.692 10.8388 545.992 9.4788 538.572C8.1188 531.152 6.2988 519.902 5.4488 513.572C4.5888 507.252 3.1688 495.092 2.2988 486.572C1.2788 476.572 0.518801 456.342 0.168801 429.572C-0.191199 402.752 0.0288014 381.702 0.788801 370.072C1.4288 360.172 2.6488 346.002 3.4888 338.572C4.3288 331.142 6.1388 318.552 7.4988 310.572C8.8588 302.592 11.3188 290.442 12.9588 283.572C14.6088 276.692 17.3488 266.342 19.0588 260.572C20.7688 254.802 24.1788 244.672 26.6488 238.072C29.1188 231.472 33.6988 220.672 36.8288 214.072C39.9588 207.472 45.3688 197.352 48.8488 191.572C52.3388 185.792 58.2088 177.022 61.8888 172.072C65.5788 167.122 71.7988 159.472 75.7088 155.072C79.6288 150.672 86.3288 143.992 90.5988 140.232C94.8788 136.462 101.529 131.012 105.379 128.112C109.229 125.222 115.529 120.912 119.379 118.542C123.229 116.172 131.779 111.662 138.379 108.512C144.979 105.352 155.329 101.192 161.379 99.2521C167.429 97.3121 175.309 95.0521 178.879 94.2221C182.449 93.4021 190.329 91.9621 196.379 91.0321C203.679 89.9121 213.429 89.3421 225.379 89.3521C236.739 89.3621 247.439 89.9621 254.379 90.9821C260.429 91.8821 269.649 93.6921 274.879 95.0221C280.109 96.3521 288.429 98.8521 293.379 100.592C298.329 102.322 306.879 105.932 312.379 108.622C317.879 111.312 326.429 116.142 331.379 119.362C336.329 122.582 343.759 127.932 347.879 131.262C352.009 134.582 359.879 142.012 365.379 147.772C370.879 153.522 378.759 162.822 382.879 168.422C387.009 174.032 393.649 184.342 397.649 191.342C401.659 198.342 407.019 209.022 409.569 215.072C412.129 221.122 416.119 231.692 418.449 238.572C420.779 245.442 424.289 257.592 426.269 265.572C428.239 273.552 430.949 286.592 432.289 294.572C433.629 302.552 435.219 313.342 435.829 318.572C436.429 323.802 437.479 335.562 438.149 344.732C439.299 360.282 439.539 361.552 441.879 364.002C443.259 365.442 445.729 366.882 447.379 367.202C449.209 367.552 451.649 367.152 453.629 366.182C455.419 365.292 457.269 363.782 457.749 362.822C458.219 361.862 458.879 341.942 459.209 318.572C459.529 295.192 460.279 269.772 460.869 262.072C461.459 254.372 462.839 240.642 463.949 231.572C465.059 222.502 467.279 208.322 468.899 200.072C470.519 191.822 473.389 179.442 475.269 172.572C477.149 165.692 480.789 154.222 483.359 147.072C485.929 139.922 491.109 127.772 494.879 120.072C498.639 112.372 504.509 101.792 507.919 96.5721C511.329 91.3421 517.159 83.2421 520.879 78.5721C524.599 73.8921 533.229 64.6721 540.059 58.0721C546.899 51.4721 556.739 43.0521 561.929 39.3621C567.129 35.6721 576.109 29.9421 581.879 26.6221C587.649 23.3021 598.009 18.2921 604.879 15.4921C611.759 12.6921 623.229 8.89213 630.379 7.06213C637.529 5.22213 648.549 3.02213 654.879 2.17213C661.209 1.32213 668.179 0.432127 670.379 0.202127C672.579 -0.037873 681.799 -0.067873 690.879 0.132127ZM651.379 99.9021C648.079 100.772 643.579 102.222 641.379 103.112C639.179 104.012 634.229 106.332 630.379 108.272C626.529 110.212 620.459 113.942 616.879 116.582C613.299 119.212 606.989 124.902 602.849 129.222C598.719 133.542 592.939 140.672 590.029 145.072C587.119 149.472 582.549 157.572 579.879 163.072C577.219 168.572 573.239 178.472 571.049 185.072C568.859 191.672 565.909 202.252 564.489 208.572C563.079 214.892 561.039 225.922 559.949 233.072C558.869 240.222 557.449 251.252 556.789 257.572C556.099 264.312 555.319 296.572 554.919 335.572C554.319 393.392 554.009 402.852 552.549 408.072C551.619 411.372 548.849 418.232 546.369 423.322C542.689 430.902 540.389 434.062 533.629 440.822C529.089 445.362 522.459 450.772 518.879 452.852C515.299 454.922 508.779 457.842 504.379 459.322L496.379 462.022C424.349 462.582 408.269 462.322 403.879 461.552C400.309 460.932 394.229 459.202 390.379 457.712C386.529 456.212 380.679 453.212 377.379 451.032C374.079 448.862 368.509 444.152 364.999 440.572C361.479 437.002 356.869 431.142 354.749 427.572C352.619 424.002 349.709 417.472 348.269 413.072C346.029 406.212 345.529 402.352 344.789 386.072C344.309 375.622 343.449 359.642 342.879 350.572C342.309 341.502 340.929 327.772 339.819 320.072C338.699 312.372 336.649 300.892 335.269 294.572C333.879 288.252 330.719 277.002 328.249 269.572C325.779 262.142 321.809 252.022 319.429 247.072C317.049 242.122 312.409 234.022 309.109 229.072C305.819 224.122 299.919 216.812 295.999 212.822C292.079 208.832 286.069 203.692 282.629 201.392C279.189 199.082 272.779 195.492 268.379 193.402C263.979 191.302 256.779 188.662 252.379 187.522C247.359 186.222 239.529 185.242 231.379 184.882C223.409 184.532 214.899 184.772 209.379 185.522C204.429 186.192 196.779 187.882 192.379 189.272C187.979 190.672 180.999 193.502 176.879 195.562C172.759 197.632 165.779 202.012 161.379 205.302C156.979 208.602 151.179 213.722 148.499 216.682C145.809 219.642 141.549 224.772 139.019 228.072C136.489 231.372 132.039 238.122 129.129 243.072C126.219 248.022 121.849 256.802 119.419 262.572C116.999 268.342 113.829 276.672 112.399 281.072C110.969 285.472 108.479 294.252 106.879 300.572C105.289 306.892 102.859 318.592 101.489 326.572C100.119 334.552 98.2688 348.502 97.3788 357.572C96.4788 366.642 95.4988 387.572 95.1788 404.072C94.8388 422.032 95.0788 442.292 95.7688 454.572C96.4088 465.842 97.6088 481.142 98.4388 488.572C99.2688 496.002 101.069 508.592 102.439 516.572C103.809 524.552 106.329 536.692 108.039 543.572C109.739 550.442 112.929 561.242 115.119 567.572C117.309 573.902 121.669 584.472 124.809 591.072C127.949 597.672 132.899 606.902 135.809 611.572C138.719 616.242 143.919 623.672 147.379 628.072C150.829 632.472 157.419 639.712 162.019 644.162C166.619 648.622 174.199 655.072 178.879 658.512C183.559 661.952 191.319 666.972 196.129 669.672C200.939 672.362 209.719 676.642 215.629 679.162C221.539 681.692 231.559 685.242 237.879 687.062C244.199 688.872 254.109 691.302 259.879 692.452C265.649 693.602 275.559 695.302 281.879 696.252C292.179 697.782 307.419 698.002 428.379 698.342C524.929 698.612 567.789 698.392 578.879 697.562C587.399 696.922 601.359 695.302 609.879 693.972C618.399 692.632 631.009 690.152 637.879 688.462C644.759 686.772 655.109 683.802 660.879 681.872C666.649 679.932 676.549 676.122 682.879 673.412C689.209 670.692 697.979 666.502 702.379 664.102C706.779 661.712 714.649 656.952 719.879 653.542C725.109 650.122 733.429 644.042 738.379 640.022C743.329 635.992 750.159 630.092 753.559 626.892C756.959 623.692 762.529 617.922 765.939 614.072C769.339 610.222 775.179 603.022 778.899 598.072C782.619 593.122 788.949 583.672 792.959 577.072C796.969 570.472 803.039 559.222 806.449 552.072C809.859 544.922 814.929 532.992 817.699 525.572C820.479 518.152 824.599 505.552 826.859 497.572C829.119 489.592 832.509 475.422 834.389 466.072C836.269 456.722 838.709 442.772 839.809 435.072C840.919 427.372 842.599 412.752 843.539 402.572C844.789 389.162 845.279 373.752 845.319 346.572C845.359 322.502 844.919 304.592 844.079 296.572C843.369 289.692 841.679 276.872 840.339 268.072C838.989 259.272 836.349 245.772 834.459 238.072C832.569 230.372 829.669 219.792 827.999 214.572C826.329 209.342 823.099 200.572 820.809 195.072C818.529 189.572 814.739 181.252 812.389 176.572C810.049 171.892 804.949 163.342 801.079 157.572C797.199 151.792 791.409 144.132 788.209 140.542C784.999 136.952 779.229 131.162 775.379 127.682C771.529 124.202 765.459 119.432 761.879 117.082C758.299 114.722 752.229 111.232 748.379 109.312C744.529 107.392 737.999 104.612 733.879 103.122C729.759 101.632 722.329 99.5221 717.379 98.4221C710.909 96.9921 703.459 96.3221 690.879 96.0321C679.139 95.7721 670.749 96.0821 665.379 96.9821C660.979 97.7221 654.679 99.0321 651.379 99.9021ZM219.879 810.672C223.449 810.632 229.309 811.302 232.879 812.152C236.449 813.002 242.489 815.352 246.279 817.382C250.679 819.732 255.409 823.432 259.309 827.572C262.679 831.152 266.669 836.552 268.169 839.572C269.669 842.602 271.569 847.552 272.379 850.572C273.189 853.602 273.869 859.902 273.879 864.572C273.889 869.492 273.219 875.392 272.289 878.572C271.409 881.602 269.269 886.762 267.529 890.052C265.799 893.352 261.679 898.762 258.379 902.092C255.079 905.412 249.679 909.552 246.379 911.282C243.079 913.012 237.009 915.362 232.879 916.502C228.759 917.642 223.129 918.582 220.379 918.582C217.629 918.582 212.119 917.672 208.129 916.572C204.139 915.472 198.969 913.622 196.629 912.462C194.289 911.292 189.949 908.482 186.989 906.212C184.019 903.932 179.529 899.152 176.999 895.572C174.469 892.002 171.339 886.152 170.029 882.572C168.459 878.282 167.479 873.022 167.159 867.072C166.789 860.472 167.119 856.342 168.369 851.572C169.309 848.002 171.449 842.372 173.119 839.072C174.909 835.552 178.899 830.372 182.769 826.542C186.409 822.952 192.079 818.592 195.379 816.852C198.679 815.102 204.079 813.012 207.379 812.212C210.679 811.402 216.309 810.712 219.879 810.672ZM719.879 810.672C723.459 810.632 729.189 811.272 732.629 812.082C736.069 812.902 741.689 814.982 745.129 816.712C748.869 818.602 754.029 822.502 757.989 826.462C761.949 830.422 765.849 835.582 767.739 839.322C769.469 842.762 771.559 848.162 772.389 851.322C773.209 854.482 773.889 860.222 773.889 864.072C773.889 867.922 773.199 873.772 772.359 877.072C771.519 880.372 769.389 886.002 767.629 889.572C765.649 893.562 762.079 898.382 758.349 902.072C755.009 905.372 749.599 909.502 746.329 911.252C743.059 912.992 737.009 915.362 732.879 916.502C728.759 917.642 723.129 918.582 720.379 918.582C717.629 918.582 712.009 917.642 707.879 916.502C703.759 915.362 697.679 912.992 694.379 911.252C691.079 909.502 685.679 905.372 682.379 902.072C679.079 898.772 674.949 893.372 673.189 890.072C671.439 886.772 669.299 881.372 668.439 878.072C667.579 874.772 666.869 868.362 666.869 863.822C666.879 858.032 667.559 853.412 669.159 848.322C670.409 844.332 672.849 838.822 674.579 836.072C676.309 833.322 680.349 828.552 683.559 825.472C686.759 822.392 692.189 818.452 695.629 816.722C699.069 814.992 704.469 812.932 707.629 812.152C710.789 811.372 716.299 810.712 719.879 810.672ZM2611.88 29.9521C2619.16 30.2321 2623.01 30.9421 2628.38 33.0121C2632.23 34.4921 2638.08 37.6421 2641.38 40.0021C2644.68 42.3621 2649.24 46.7121 2651.52 49.6821C2653.79 52.6421 2656.56 56.8721 2657.66 59.0721C2658.77 61.2721 2660.48 65.7721 2661.47 69.0721C2662.63 72.9721 2663.24 78.2121 2663.22 84.0721C2663.19 91.2121 2662.63 94.6221 2660.51 100.572C2659.05 104.702 2656.39 110.282 2654.61 112.992C2652.83 115.702 2648.86 120.202 2645.77 122.992C2642.69 125.782 2637.29 129.482 2633.77 131.212C2630.26 132.932 2624.91 134.922 2621.88 135.632C2618.85 136.342 2612.78 136.882 2608.38 136.822C2603.41 136.762 2597.92 135.962 2593.88 134.692C2590.31 133.582 2584.68 130.912 2581.38 128.772C2578.08 126.632 2573.09 122.452 2570.29 119.472C2567.48 116.502 2563.77 111.262 2562.04 107.822C2560.3 104.382 2558.16 98.5321 2557.27 94.8221C2556.16 90.1421 2555.83 85.6121 2556.2 80.0721C2556.53 75.1921 2557.74 69.3421 2559.29 65.0721C2560.7 61.2221 2563.54 55.6421 2565.61 52.6621C2567.69 49.6921 2571.63 45.2821 2574.38 42.8721C2577.13 40.4621 2582.08 37.1621 2585.38 35.5521C2588.68 33.9321 2593.85 31.9221 2596.88 31.0921C2600.61 30.0621 2605.44 29.7021 2611.88 29.9521ZM3153.88 29.6721C3157.45 29.6321 3163.31 30.3021 3166.88 31.1521C3170.45 32.0021 3176.49 34.3521 3180.28 36.3821C3184.68 38.7321 3189.41 42.4321 3193.31 46.5721C3196.68 50.1521 3200.67 55.5521 3202.17 58.5721C3203.67 61.6021 3205.57 66.5521 3206.38 69.5721C3207.19 72.6021 3207.85 79.1221 3207.84 84.0721C3207.83 90.7221 3207.25 94.7821 3205.6 99.6021C3204.38 103.202 3201.81 108.732 3199.88 111.902C3197.95 115.072 3194.58 119.412 3192.38 121.562C3190.18 123.702 3185.68 127.072 3182.38 129.052C3179.08 131.022 3173.45 133.562 3169.88 134.692C3165.58 136.052 3160.5 136.762 3154.88 136.812C3149.57 136.852 3144.13 136.222 3140.38 135.132C3137.08 134.182 3131.73 131.972 3128.49 130.232C3125.25 128.492 3120.5 125.052 3117.93 122.572C3115.36 120.102 3111.61 115.602 3109.6 112.572C3107.58 109.552 3104.98 104.372 3103.81 101.072C3102.54 97.4721 3101.48 91.4721 3101.18 86.0721C3100.8 79.4621 3101.11 75.3421 3102.36 70.5721C3103.29 67.0021 3105.46 61.3721 3107.19 58.0721C3108.91 54.7721 3113.26 49.1121 3116.85 45.4921C3121.27 41.0421 3125.64 37.8121 3130.38 35.5121C3134.23 33.6421 3139.63 31.5821 3142.38 30.9321C3145.13 30.2721 3150.31 29.7121 3153.88 29.6721ZM4007.88 29.6721C4011.45 29.6321 4017.31 30.3021 4020.88 31.1521C4024.45 32.0021 4030.49 34.3521 4034.28 36.3821C4038.66 38.7221 4043.43 42.4421 4047.33 46.5721C4050.85 50.3021 4054.81 55.8421 4056.61 59.5721C4058.34 63.1521 4060.22 68.1021 4060.79 70.5721C4061.36 73.0521 4061.83 79.1221 4061.83 84.0721C4061.83 90.7421 4061.25 94.7621 4059.6 99.6021C4058.38 103.202 4055.81 108.762 4053.88 111.962C4051.95 115.162 4047.91 120.042 4044.88 122.812C4041.85 125.572 4036.91 129.072 4033.88 130.592C4030.85 132.112 4025.68 134.152 4022.38 135.112C4018.87 136.142 4013.06 136.862 4008.38 136.862C4003.76 136.862 3997.85 136.132 3994.38 135.132C3991.08 134.172 3985.73 131.972 3982.49 130.232C3979.25 128.492 3974.5 125.052 3971.93 122.572C3969.36 120.102 3965.61 115.602 3963.6 112.572C3961.58 109.552 3958.98 104.372 3957.82 101.072C3956.62 97.6621 3955.48 91.4021 3955.19 86.5721C3954.83 80.5621 3955.16 76.0221 3956.33 71.0721C3957.25 67.2221 3959.42 61.3721 3961.16 58.0721C3962.9 54.7721 3967.26 49.1121 3970.85 45.4921C3975.27 41.0421 3979.64 37.8121 3984.38 35.5121C3988.23 33.6421 3993.63 31.5821 3996.38 30.9321C3999.13 30.2721 4004.31 29.7121 4007.88 29.6721ZM1461.38 169.732C1465.78 169.652 1476.8 170.042 1485.88 170.592C1494.96 171.142 1508.68 172.522 1516.38 173.652C1524.08 174.782 1536.23 177.202 1543.38 179.042C1550.53 180.872 1560.88 184.042 1566.38 186.102C1571.88 188.152 1580.88 192.082 1586.38 194.832C1591.88 197.592 1599.76 202.102 1603.88 204.872C1608.01 207.632 1614.91 212.862 1619.22 216.482C1623.53 220.102 1629.19 225.552 1631.8 228.572C1634.41 231.602 1638.54 236.772 1640.97 240.072C1643.41 243.372 1647.7 250.572 1650.51 256.072C1653.32 261.572 1656.8 269.672 1658.23 274.072C1659.66 278.472 1661.51 285.002 1662.33 288.572C1663.16 292.152 1664.27 300.472 1664.81 307.072C1665.45 314.882 1665.45 322.912 1664.81 330.072C1664.27 336.122 1662.94 344.782 1661.86 349.322C1660.77 353.862 1658.7 360.382 1657.25 363.822C1655.8 367.262 1652.93 372.772 1650.85 376.072C1648.78 379.372 1643.53 385.452 1639.19 389.572C1634.04 394.472 1628.54 398.512 1623.34 401.222C1618.96 403.502 1611.67 406.542 1607.13 407.972C1602.59 409.402 1594.94 411.032 1590.13 411.582C1585.32 412.142 1578.46 412.932 1574.88 413.332C1569.14 413.982 1568.35 414.332 1568.13 416.322C1567.98 417.652 1568.59 418.922 1569.63 419.432C1570.59 419.912 1577.46 420.582 1584.88 420.932C1592.3 421.282 1602.66 422.432 1607.88 423.482C1613.1 424.532 1621.66 426.772 1626.88 428.462C1632.1 430.142 1639.98 433.372 1644.38 435.632C1648.78 437.892 1655.3 441.912 1658.88 444.562C1662.46 447.212 1667.9 452.012 1670.98 455.222C1674.05 458.442 1678.79 464.452 1681.51 468.572C1684.22 472.702 1687.86 479.452 1689.59 483.572C1691.33 487.702 1693.85 495.352 1695.21 500.572C1696.56 505.802 1698.24 515.242 1698.92 521.572C1699.67 528.462 1699.95 538.482 1699.62 546.572C1699.3 554.172 1698.12 564.662 1696.91 570.572C1695.73 576.352 1693.4 585.122 1691.75 590.072C1690.09 595.022 1686.83 602.902 1684.5 607.572C1682.18 612.242 1678.32 618.992 1675.92 622.572C1673.52 626.152 1668.54 632.672 1664.85 637.072C1661.16 641.472 1654.37 648.262 1649.76 652.162C1645.15 656.072 1638.01 661.492 1633.88 664.222C1629.76 666.962 1623.79 670.632 1620.63 672.382C1617.47 674.132 1610.04 677.632 1604.13 680.152C1598.22 682.672 1588.43 686.232 1582.38 688.052C1576.33 689.882 1565.76 692.532 1558.88 693.942C1552.01 695.352 1540.53 697.262 1533.38 698.192C1524.55 699.342 1512.52 699.912 1495.88 699.972C1480.79 700.032 1467.92 699.582 1462.38 698.792C1457.43 698.092 1448.66 696.582 1442.88 695.442C1437.1 694.302 1427.21 691.682 1420.88 689.612C1414.55 687.552 1405.33 683.972 1400.38 681.662C1395.43 679.352 1387.1 674.602 1381.88 671.122C1376.66 667.632 1369.07 661.472 1365.02 657.422C1360.98 653.382 1355.71 647.152 1353.32 643.572C1350.94 639.992 1347.58 633.242 1345.86 628.572C1343.89 623.192 1342.31 616.312 1340.38 599.562L1333.88 599.572V700.572H1228.38L1227.7 534.322C1227.28 430.522 1227.39 362.622 1227.99 353.572C1228.52 345.602 1229.63 334.572 1230.45 329.072C1231.27 323.572 1232.89 315.022 1234.05 310.072C1235.2 305.122 1237.93 295.902 1240.1 289.572C1242.28 283.252 1246.46 273.352 1249.41 267.572C1252.35 261.802 1257.6 253.022 1261.07 248.072C1264.54 243.122 1272.1 234.342 1277.88 228.572C1283.66 222.792 1292.55 215.142 1297.65 211.572C1302.75 207.992 1311.3 202.722 1316.65 199.852C1322 196.992 1331.1 192.782 1336.88 190.512C1342.66 188.242 1352.55 184.892 1358.88 183.062C1365.21 181.242 1376.34 178.582 1383.63 177.162C1390.92 175.742 1402.62 173.872 1409.63 173.022C1416.64 172.172 1429.35 171.112 1437.88 170.672C1446.41 170.232 1456.98 169.812 1461.38 169.732ZM1413.88 274.022C1408.66 274.922 1399.66 277.222 1393.88 279.132C1388.1 281.042 1380.01 284.562 1375.88 286.952C1371.76 289.342 1365.72 293.722 1362.47 296.682C1359.23 299.652 1354.37 305.222 1351.69 309.072C1349.01 312.922 1345.5 319.222 1343.9 323.072C1342.3 326.922 1340.09 333.902 1338.98 338.572C1337.87 343.252 1336.49 351.802 1335.92 357.572C1335.32 363.522 1334.88 391.262 1334.9 421.572C1334.92 451.002 1335.37 479.572 1335.9 485.072C1336.43 490.572 1337.59 498.672 1338.49 503.072C1339.38 507.472 1341.32 514.672 1342.8 519.072C1344.29 523.472 1347.51 530.902 1349.97 535.572C1352.43 540.242 1356.51 546.772 1359.03 550.072C1361.55 553.372 1366.93 559.202 1370.99 563.022C1375.06 566.842 1381.3 571.842 1384.88 574.142C1388.46 576.432 1393.63 579.452 1396.38 580.842C1399.13 582.232 1404.87 584.772 1409.13 586.472C1413.39 588.182 1421.27 590.722 1426.63 592.132C1431.99 593.542 1442.23 595.572 1449.38 596.652C1456.53 597.742 1470.71 598.902 1480.88 599.232C1492.37 599.612 1503.92 599.402 1511.38 598.672C1517.98 598.032 1528.55 596.342 1534.88 594.932C1541.21 593.522 1550.21 590.822 1554.88 588.932C1559.55 587.042 1566.53 583.532 1570.38 581.122C1574.23 578.722 1580.13 573.902 1583.48 570.412C1586.84 566.922 1590.84 561.602 1592.37 558.572C1593.9 555.552 1595.79 551.272 1596.57 549.072C1597.35 546.872 1598.41 541.702 1598.93 537.572C1599.55 532.692 1599.53 527.282 1598.88 522.072C1598.18 516.512 1596.81 511.862 1594.37 506.822C1592.26 502.442 1588.8 497.472 1585.63 494.262C1582.74 491.342 1577.46 487.312 1573.88 485.322C1570.3 483.332 1564.01 480.572 1559.88 479.192C1555.76 477.812 1548.33 475.922 1543.38 474.992C1536.58 473.722 1525.69 473.152 1498.88 472.662C1463.6 472.022 1463.35 472.002 1457.88 469.472C1454.85 468.072 1450.8 465.552 1448.88 463.882C1446.96 462.202 1444.18 458.642 1442.72 455.952C1441.25 453.272 1439.56 448.372 1438.96 445.072C1438.36 441.772 1437.87 433.222 1437.88 426.072C1437.89 418.922 1438.35 410.372 1438.9 407.072C1439.46 403.772 1440.92 399.112 1442.15 396.712C1443.38 394.302 1446.41 390.502 1448.88 388.262C1451.35 386.012 1455.41 383.292 1457.88 382.222C1461.39 380.702 1466.13 380.082 1479.38 379.422C1488.73 378.952 1500.43 377.862 1505.38 377.002C1510.33 376.152 1518.43 374.092 1523.38 372.442C1528.33 370.782 1535.08 367.782 1538.38 365.772C1541.68 363.772 1546.29 360.202 1548.63 357.852C1550.97 355.492 1554.23 350.872 1555.88 347.572C1557.61 344.102 1559.3 338.612 1559.88 334.572C1560.56 329.822 1560.54 325.242 1559.84 320.322C1559.2 315.902 1557.54 310.552 1555.59 306.632C1553.79 303.042 1549.93 297.742 1546.83 294.632C1543.24 291.032 1538.14 287.432 1532.33 284.422C1527.41 281.862 1520.23 278.802 1516.38 277.622C1512.53 276.432 1504.21 274.542 1497.88 273.422C1489.07 271.852 1481.01 271.292 1463.38 271.042C1450.73 270.872 1436.55 271.092 1431.88 271.552C1427.21 272.002 1419.1 273.112 1413.88 274.022ZM1685.38 169.732C1689.78 169.652 1699.91 170.052 1707.88 170.612C1715.85 171.182 1727.1 172.322 1732.88 173.152C1738.66 173.982 1749.23 176.052 1756.38 177.742C1763.53 179.442 1774.55 182.632 1780.88 184.832C1787.21 187.032 1796.43 190.712 1801.38 193.012C1806.33 195.302 1814.66 199.702 1819.88 202.782C1825.1 205.862 1832.98 211.062 1837.38 214.352C1841.78 217.632 1848.93 223.632 1853.27 227.692C1857.61 231.752 1863.95 238.452 1867.37 242.572C1870.78 246.702 1875.41 252.772 1877.64 256.072C1879.88 259.372 1883.36 265.002 1885.37 268.572C1887.39 272.152 1890.52 278.452 1892.33 282.572C1894.14 286.702 1897.03 294.352 1898.74 299.572C1900.46 304.802 1902.77 313.572 1903.89 319.072C1905 324.572 1906.44 335.372 1907.09 343.072C1907.98 353.732 1907.98 360.532 1907.1 371.572C1906.46 379.552 1905.01 390.572 1903.87 396.072C1902.74 401.572 1900.31 410.572 1898.47 416.072C1896.63 421.572 1893.21 429.902 1890.87 434.572C1888.52 439.252 1884.48 446.222 1881.88 450.072C1879.29 453.922 1874.51 460.162 1871.27 463.952C1868.03 467.732 1862.23 473.502 1858.38 476.772C1854.53 480.032 1848.46 484.672 1844.88 487.072C1841.3 489.462 1834.33 493.442 1829.38 495.892C1824.43 498.352 1816.1 501.752 1810.88 503.442C1805.66 505.142 1797.33 507.222 1792.38 508.062C1787.43 508.902 1781.92 509.592 1780.13 509.582C1777.13 509.572 1776.88 509.822 1776.86 516.072L1784.62 516.802C1788.89 517.202 1796.43 518.682 1801.38 520.092C1806.33 521.492 1814.21 524.462 1818.88 526.692C1823.55 528.912 1830.53 532.822 1834.38 535.382C1838.23 537.932 1845.36 543.862 1850.22 548.552C1855.08 553.242 1861.46 560.672 1864.4 565.072C1867.33 569.472 1885.97 601.532 1905.81 636.322C1925.65 671.112 1941.88 699.802 1941.88 700.072C1941.88 700.352 1914.54 700.562 1820.38 700.552L1792.5 651.812C1777.17 625.002 1763.22 600.652 1761.5 597.702C1759.79 594.752 1755.46 589.182 1751.88 585.332C1748.3 581.482 1742.46 576.392 1738.88 574.032C1735.3 571.672 1729.01 568.372 1717.38 563.692L1717.32 539.882C1717.27 519.082 1716.97 514.682 1714.97 505.072C1713.71 499.022 1711.34 490.252 1709.69 485.572C1708.05 480.902 1704.72 473.362 1702.29 468.822C1698.46 461.652 1698.11 460.522 1699.63 460.152C1700.59 459.922 1704.53 459.432 1708.38 459.052C1712.23 458.682 1720.55 457.072 1726.88 455.492C1735.01 453.452 1741.9 450.842 1750.38 446.592C1756.98 443.292 1765.3 438.202 1768.88 435.282C1772.46 432.362 1777.99 426.842 1781.18 423.022C1784.37 419.202 1788.96 412.022 1791.38 407.072C1793.8 402.122 1796.46 395.372 1797.28 392.072C1798.11 388.772 1799.31 381.802 1799.94 376.572C1800.59 371.202 1800.8 363.592 1800.42 359.072C1800.05 354.672 1799.06 347.702 1798.23 343.572C1797.4 339.452 1795.37 332.702 1793.71 328.572C1792.06 324.452 1788.72 318.032 1786.29 314.322C1783.86 310.612 1779.97 305.482 1777.63 302.942C1775.29 300.392 1770.68 296.242 1767.38 293.722C1764.08 291.202 1757.78 287.232 1753.38 284.912C1748.98 282.592 1741.33 279.342 1736.38 277.692C1731.43 276.052 1723.33 273.962 1718.38 273.062C1713.43 272.162 1701.86 271.122 1675.96 270.072L1673.79 264.072C1672.59 260.772 1669.6 254.022 1667.12 249.072C1664.65 244.122 1660.02 236.252 1656.83 231.572C1653.64 226.902 1647.29 219.062 1642.71 214.152C1638.13 209.252 1630.78 202.342 1626.38 198.802C1621.98 195.272 1615.11 190.282 1611.1 187.722C1607.1 185.162 1603.84 182.732 1603.85 182.322C1603.87 181.912 1607.37 180.682 1611.63 179.602C1615.89 178.522 1622.3 176.972 1625.88 176.162C1629.46 175.342 1637.55 173.932 1643.88 173.012C1650.21 172.092 1660.33 171.012 1666.38 170.602C1672.43 170.202 1680.98 169.802 1685.38 169.732ZM1960.88 169.732C1964.46 169.642 1974.58 170.032 1983.38 170.592C1992.18 171.152 2005.46 172.502 2012.88 173.582C2020.3 174.662 2032.01 176.922 2038.88 178.582C2045.76 180.252 2056.33 183.252 2062.38 185.242C2068.43 187.232 2079.01 191.312 2085.88 194.302C2092.76 197.292 2103.1 202.462 2108.88 205.782C2114.66 209.112 2122.98 214.352 2127.38 217.442C2131.78 220.532 2139.2 226.252 2143.88 230.152C2148.56 234.062 2156.88 241.942 2162.38 247.662C2167.88 253.392 2175.93 262.802 2180.27 268.572C2184.6 274.352 2190.82 283.572 2194.08 289.072C2197.34 294.572 2201.94 303.122 2204.31 308.072C2206.67 313.022 2210.24 321.232 2212.24 326.322C2214.24 331.412 2217.44 340.862 2219.36 347.322C2221.27 353.782 2223.73 363.352 2224.82 368.572C2225.91 373.802 2227.48 382.572 2228.3 388.072C2229.12 393.572 2230.32 405.272 2230.96 414.072C2231.67 423.682 2231.86 436.462 2231.46 446.072C2231.09 454.872 2230.12 467.702 2229.31 474.572C2228.5 481.452 2226.68 492.702 2225.26 499.572C2223.85 506.452 2221.13 517.242 2219.22 523.572C2217.32 529.902 2213.72 540.242 2211.23 546.572C2208.73 552.902 2204.21 562.802 2201.18 568.572C2198.15 574.352 2192.9 583.342 2189.52 588.572C2186.14 593.792 2179.97 602.342 2175.81 607.572C2171.65 612.792 2164 621.312 2158.81 626.502C2153.62 631.692 2145.1 639.352 2139.88 643.522C2134.66 647.692 2126.33 653.772 2121.38 657.032C2116.43 660.292 2106.98 665.752 2100.38 669.172C2093.78 672.582 2083.2 677.422 2076.88 679.932C2070.56 682.432 2059.76 686.102 2052.88 688.072C2046.01 690.052 2034.98 692.752 2028.38 694.082C2021.78 695.412 2010.98 697.172 2004.38 697.982C1997.78 698.802 1985.85 699.772 1963.38 700.812L1933.88 649.042C1917.66 620.572 1903.51 595.652 1902.45 593.672C1900.55 590.112 1900.55 590.082 1902.45 590.712C1903.51 591.062 1908.21 592.472 1912.88 593.842C1917.55 595.222 1925.66 597.102 1930.88 598.022C1936.1 598.942 1947.58 599.952 1956.38 600.262C1965.95 600.602 1976.8 600.352 1983.38 599.652C1989.43 599.002 1999.55 597.322 2005.88 595.912C2012.21 594.502 2020.98 592.022 2025.38 590.402C2029.78 588.772 2038.1 584.972 2043.88 581.952C2049.66 578.922 2057.94 573.892 2062.28 570.762C2066.63 567.632 2074.05 561.212 2078.78 556.482C2083.51 551.762 2090.22 543.892 2093.69 538.982C2097.16 534.082 2102.41 525.352 2105.34 519.572C2108.27 513.802 2112.1 505.022 2113.85 500.072C2115.59 495.122 2117.88 487.472 2118.93 483.072C2119.99 478.672 2121.55 470.122 2122.4 464.072C2123.34 457.402 2123.95 445.982 2123.95 435.072C2123.95 423.922 2123.33 412.692 2122.33 405.572C2121.44 399.252 2119.67 390.022 2118.39 385.072C2117.12 380.122 2114.67 372.252 2112.96 367.572C2111.24 362.902 2107.71 354.912 2105.11 349.822C2102.51 344.742 2097.45 336.452 2093.88 331.402C2090.31 326.352 2083.51 318.362 2078.78 313.652C2074.05 308.932 2066.41 302.372 2061.79 299.072C2057.18 295.772 2048.45 290.572 2042.39 287.522C2036.34 284.472 2027.1 280.562 2021.88 278.832C2016.66 277.112 2007.88 274.792 2002.38 273.672C1996.88 272.552 1986.08 271.112 1978.38 270.462C1967.8 269.562 1960.84 269.552 1949.88 270.402C1941.91 271.022 1931.1 272.422 1925.88 273.512C1920.66 274.602 1915.03 275.912 1910.38 277.352L1905.52 267.712C1902.85 262.412 1898.18 254.252 1895.16 249.572C1892.13 244.902 1886.22 236.832 1882.02 231.662C1877.82 226.482 1870.71 218.832 1866.23 214.662C1861.75 210.482 1854.46 204.372 1850.03 201.072C1845.6 197.772 1841.95 194.732 1841.92 194.322C1841.9 193.912 1846.72 191.742 1852.63 189.502C1858.54 187.262 1868.55 183.932 1874.88 182.102C1881.21 180.272 1892.01 177.642 1898.88 176.262C1905.76 174.882 1915.66 173.202 1920.88 172.542C1926.1 171.872 1935.78 170.992 1942.38 170.602C1948.98 170.202 1957.3 169.812 1960.88 169.732ZM2391.9 169.552L2502.38 170.072L2502.88 599.572H2716.88V700.572L2592.63 700.262C2480.08 699.972 2467.74 699.782 2461.63 698.262C2457.92 697.332 2451.62 695.432 2447.63 694.032C2443.64 692.642 2437.91 690.102 2434.88 688.392C2431.85 686.692 2426.73 683.212 2423.5 680.682C2420.26 678.142 2415.19 673.152 2412.23 669.572C2409.27 665.992 2405.21 659.922 2403.2 656.072C2401.19 652.222 2398.49 645.922 2397.18 642.072C2395.88 638.222 2394.15 631.242 2393.34 626.572C2392.06 619.242 2391.86 587.232 2391.88 393.812L2391.9 169.552ZM2555.88 169.572H2662.38L2663.13 251.322C2663.54 296.282 2663.88 380.212 2663.88 542.572H2555.88V169.572ZM2716.9 169.552L2824.38 170.072L2824.87 441.072L2831.63 440.342C2835.34 439.942 2841.98 438.682 2846.38 437.542C2850.78 436.412 2858.21 433.672 2862.88 431.452C2867.56 429.242 2874.31 425.492 2877.88 423.112C2881.46 420.732 2887.93 415.482 2892.26 411.432C2896.59 407.382 2902.49 400.922 2905.37 397.072C2908.25 393.222 2912.93 386.022 2915.77 381.072C2918.61 376.122 2922.78 367.342 2925.04 361.572C2927.3 355.792 2930.61 345.222 2932.4 338.072C2934.19 330.922 2936.48 319.892 2937.48 313.572C2939.06 303.612 2939.37 293.232 2940.38 170.072H3047.38L3047.68 213.072C3047.85 236.722 3047.5 266.872 3046.91 280.072C3046.31 293.272 3045.2 309.022 3044.43 315.072C3043.66 321.122 3042.3 330.342 3041.4 335.572C3040.5 340.792 3038.48 350.472 3036.91 357.072C3035.35 363.672 3031.96 375.372 3029.4 383.072C3026.83 390.772 3022.16 402.692 3019.03 409.572C3015.9 416.442 3010.42 426.962 3006.86 432.932C3003.3 438.912 2996.8 448.582 2992.42 454.432C2988.04 460.282 2979.27 470.262 2972.92 476.602C2966.57 482.942 2957.11 491.332 2951.88 495.242C2946.66 499.142 2938.56 504.682 2933.88 507.542C2929.21 510.402 2920.88 514.902 2915.38 517.552C2909.88 520.202 2900.88 524.032 2895.38 526.072C2889.88 528.112 2879.98 531.252 2873.38 533.062C2866.78 534.872 2855.76 537.302 2848.88 538.452C2842.01 539.602 2831.43 540.992 2825.38 541.552C2819.33 542.112 2792.44 542.572 2716.88 542.572L2716.9 169.552ZM3100.9 169.552L3208.38 170.072L3208.88 542.572H3100.88L3100.9 169.552ZM3457.39 170.242C3463.99 170.492 3474.56 171.322 3480.89 172.102C3487.21 172.872 3498.01 174.932 3504.89 176.662C3511.76 178.392 3521.21 181.272 3525.89 183.052C3530.56 184.842 3538.44 188.332 3543.39 190.812C3548.34 193.292 3556.44 198.052 3561.39 201.382C3566.34 204.712 3573.76 210.422 3577.89 214.072C3582.01 217.712 3588.45 224.162 3592.2 228.382C3595.95 232.612 3601.74 240.112 3605.07 245.062C3608.4 250.012 3613.32 258.452 3616.01 263.812C3618.69 269.182 3622.63 278.632 3624.75 284.812C3626.88 291.002 3629.62 300.342 3630.84 305.562C3632.06 310.792 3633.76 319.792 3634.63 325.562C3635.96 334.462 3636.25 351.822 3636.89 542.562H3528.89L3528.35 332.062L3526.05 324.562C3524.79 320.442 3521.87 313.462 3519.57 309.062C3516.61 303.402 3513.05 298.702 3507.39 292.972C3500.52 286.022 3497.9 284.152 3488.89 279.802C3483.11 277.012 3475.24 273.932 3471.39 272.952C3466.18 271.622 3460.42 271.152 3448.89 271.132C3437.08 271.112 3431.72 271.542 3426.39 272.922C3422.54 273.922 3415.34 276.672 3410.39 279.042C3403.64 282.262 3399.42 285.182 3393.53 290.702C3389.21 294.752 3383.92 300.882 3381.78 304.312C3379.64 307.752 3376.76 313.382 3375.38 316.812C3374.01 320.252 3372.12 326.212 3371.2 330.062C3369.7 336.342 3369.49 347.742 3368.89 542.562H3261.89L3262.21 434.812C3262.49 338.472 3262.71 326.162 3264.22 318.562C3265.15 313.892 3267.05 305.562 3268.45 300.062C3269.84 294.562 3273.04 284.892 3275.55 278.562C3278.06 272.242 3281.72 264.142 3283.68 260.562C3285.63 256.992 3289.82 250.242 3292.99 245.562C3296.15 240.892 3301.85 233.462 3305.65 229.062C3309.45 224.662 3316.34 217.862 3320.97 213.942C3325.6 210.022 3333.66 204.022 3338.89 200.592C3344.11 197.172 3352.44 192.432 3357.39 190.062C3362.34 187.682 3371.11 184.102 3376.89 182.092C3382.66 180.072 3391.89 177.372 3397.39 176.082C3402.89 174.792 3410.99 173.192 3415.39 172.542C3419.79 171.882 3428.34 170.992 3434.39 170.572C3440.44 170.142 3450.79 169.992 3457.39 170.242ZM3857.89 169.762C3859.81 169.662 3867.69 170.032 3875.39 170.582C3883.09 171.132 3894.34 172.462 3900.39 173.532C3906.44 174.612 3916 176.862 3921.64 178.532C3927.27 180.202 3936.05 183.362 3941.14 185.572C3946.22 187.772 3953.99 191.662 3958.39 194.212C3962.79 196.772 3969.76 201.362 3973.89 204.432C3978.01 207.492 3985.21 213.882 3989.89 218.612C3994.56 223.352 4000.95 230.792 4004.08 235.152C4007.2 239.502 4012.06 247.562 4014.86 253.062C4017.67 258.562 4021.48 267.792 4023.33 273.562C4025.18 279.342 4027.41 287.662 4028.29 292.062C4029.17 296.462 4030.33 305.462 4030.87 312.062C4031.49 319.692 4031.51 328.622 4030.92 336.562C4030.41 343.442 4029.26 352.662 4028.37 357.062C4027.48 361.462 4025.26 369.562 4023.44 375.062C4021.62 380.562 4018.55 388.212 4016.6 392.062C4014.66 395.912 4010.69 402.442 4007.78 406.562C4004.86 410.692 3999.53 416.992 3995.92 420.562C3992.31 424.142 3985.77 429.442 3981.37 432.342C3976.98 435.242 3969.79 438.992 3965.39 440.682C3960.99 442.362 3954.91 444.042 3951.89 444.402C3946.8 445.012 3946.37 445.272 3946.14 447.812C3945.9 450.462 3946.09 450.582 3951.64 451.162C3954.8 451.482 3960.2 452.382 3963.64 453.162C3967.07 453.932 3973.37 455.902 3977.64 457.542C3981.9 459.172 3988.98 462.882 3993.37 465.792C3997.76 468.692 4004.06 473.782 4007.37 477.092C4010.68 480.412 4015.62 486.492 4018.35 490.592C4021.08 494.702 4024.78 501.662 4026.57 506.062C4028.36 510.462 4030.83 518.342 4032.06 523.562C4033.94 531.572 4034.29 535.972 4034.3 551.562C4034.31 565.132 4033.82 572.732 4032.49 580.062C4031.5 585.562 4028.91 595.462 4026.74 602.062C4024.57 608.662 4020.68 618.052 4018.09 622.922C4015.5 627.792 4010.63 635.442 4007.27 639.922C4003.91 644.402 3997.16 651.842 3992.27 656.452C3987.38 661.072 3979.11 667.682 3973.89 671.152C3968.66 674.612 3960.11 679.452 3954.89 681.892C3949.66 684.332 3940.44 687.912 3934.39 689.852C3928.34 691.792 3919.11 694.282 3913.89 695.392C3908.66 696.492 3900.11 697.992 3894.89 698.712C3889.29 699.492 3876.35 700.022 3863.39 699.992C3847.54 699.972 3838.17 699.462 3829.89 698.192C3823.56 697.222 3814.79 695.592 3810.39 694.562C3805.99 693.532 3798.11 691.272 3792.89 689.532C3787.66 687.792 3779.34 684.432 3774.39 682.062C3769.44 679.702 3761.11 674.942 3755.89 671.502C3750.66 668.052 3742.11 661.082 3736.89 656.002C3731.66 650.932 3724.83 643.242 3721.7 638.922C3718.58 634.602 3713.78 626.792 3711.03 621.562C3708.29 616.342 3704.49 607.562 3702.58 602.062C3700.68 596.562 3698.19 587.562 3697.04 582.062C3695.9 576.562 3694.5 567.112 3693.93 561.062C3693.36 555.012 3692.89 548.382 3692.89 542.562H3792.89L3793.38 547.312C3793.64 549.932 3794.54 555.662 3795.36 560.062C3796.18 564.462 3798.28 570.992 3800.04 574.562C3802.05 578.662 3805.66 583.512 3809.81 587.672C3814.17 592.052 3818.83 595.512 3823.64 597.922C3827.62 599.922 3834.82 602.542 3839.64 603.742C3846.66 605.492 3851.34 605.922 3863.39 605.932C3873.73 605.932 3880.72 605.422 3885.89 604.272C3890.01 603.362 3897.44 600.632 3902.39 598.202C3908.73 595.092 3913.16 592.042 3917.39 587.872C3920.87 584.432 3924.93 579.032 3927.05 575.002C3929.07 571.192 3931.49 565.142 3932.44 561.562C3933.57 557.332 3934.2 551.052 3934.25 543.562C3934.31 535.162 3933.84 530.452 3932.52 526.062C3931.52 522.762 3929.51 517.862 3928.05 515.182C3926.58 512.492 3922.69 507.802 3919.39 504.752C3916.02 501.642 3910.32 497.772 3906.39 495.912C3902.54 494.092 3895.79 491.672 3891.39 490.532C3885.5 489.012 3876.66 488.092 3857.89 487.052C3843.86 486.272 3828.34 484.922 3823.39 484.052C3818.44 483.182 3811.01 481.622 3806.89 480.572C3802.76 479.522 3795.34 477.252 3790.39 475.512C3785.44 473.782 3776.44 469.822 3770.39 466.732C3764.34 463.632 3756.01 458.672 3751.89 455.702C3747.76 452.742 3741.72 448.002 3738.46 445.192C3735.2 442.372 3729.64 436.692 3726.11 432.562C3722.58 428.442 3717.46 421.692 3714.72 417.562C3711.99 413.442 3707.8 406.012 3705.42 401.062C3703.04 396.112 3699.52 387.112 3697.6 381.062C3695.68 375.012 3693.27 365.562 3692.24 360.062C3690.8 352.302 3690.39 345.262 3690.39 328.562C3690.39 311.892 3690.8 304.822 3692.24 297.062C3693.26 291.562 3695.83 281.662 3697.95 275.062C3700.08 268.462 3704.11 258.562 3706.92 253.062C3709.72 247.562 3714.12 240.142 3716.69 236.562C3719.25 232.992 3723.86 227.142 3726.92 223.562C3729.99 219.992 3736.29 213.872 3740.94 209.972C3745.59 206.072 3752.09 201.062 3755.39 198.842C3758.69 196.622 3765.89 192.552 3771.39 189.782C3776.89 187.022 3785.89 183.192 3791.39 181.272C3796.89 179.362 3806.56 176.642 3812.89 175.242C3819.21 173.842 3828.66 172.212 3833.89 171.612C3839.11 171.022 3845.86 170.402 3848.89 170.232C3851.91 170.072 3855.96 169.852 3857.89 169.762ZM3823.14 272.302C3817.42 275.062 3813.39 278.002 3807.77 283.552C3802.07 289.182 3799.25 292.952 3796.55 298.562C3794.56 302.692 3792.25 309.552 3791.41 313.812C3790.57 318.082 3789.89 324.832 3789.9 328.812C3789.91 332.802 3790.58 339.212 3791.39 343.062C3792.19 346.912 3794.74 353.892 3797.06 358.562C3800.12 364.752 3803.05 368.842 3807.83 373.572C3811.78 377.502 3817.17 381.532 3821.39 383.732C3825.24 385.742 3831.76 388.432 3835.89 389.722C3842.65 391.832 3845.26 392.062 3862.39 392.062C3877.58 392.062 3882.99 391.682 3889.39 390.162C3893.79 389.122 3900.76 386.572 3904.89 384.502C3909.44 382.212 3914.19 378.832 3916.97 375.902C3919.5 373.242 3922.99 368.252 3924.72 364.812C3926.46 361.382 3928.57 355.752 3929.4 352.312C3930.24 348.882 3931.2 340.892 3931.54 334.562C3932.02 325.732 3931.77 321.092 3930.47 314.562C3929.51 309.792 3927.16 302.782 3925.09 298.562C3922.53 293.352 3919.28 288.892 3914.4 283.942C3908.76 278.222 3905.53 275.932 3897.89 272.262C3892.41 269.622 3885.11 267.022 3880.64 266.122C3875.77 265.142 3867.95 264.592 3859.64 264.642C3850.1 264.692 3844.21 265.252 3838.64 266.642C3834.37 267.702 3827.4 270.242 3823.14 272.302Z" fill="#FF8300"/>
</svg>
