<svg width="942" height="919" viewBox="0 0 942 919" fill="none" xmlns="http://www.w3.org/2000/svg">
<path fill-rule="evenodd" clip-rule="evenodd" d="M690.879 0.132127C699.959 0.332127 712.549 1.20213 718.879 2.06213C725.209 2.93213 735.329 4.81213 741.379 6.24213C747.429 7.67213 757.549 10.6021 763.879 12.7621C770.209 14.9121 781.459 19.6121 788.879 23.2121C796.299 26.8021 806.209 32.2421 810.879 35.3021C815.549 38.3521 822.979 43.6021 827.379 46.9621C831.779 50.3121 840.049 57.5621 845.769 63.0621C851.479 68.5721 859.739 77.3521 864.119 82.5721C868.509 87.7921 875.989 97.9221 880.739 105.072C885.499 112.222 892.839 124.822 897.049 133.072C901.269 141.322 906.729 153.022 909.189 159.072C911.649 165.122 915.719 176.372 918.219 184.072C920.729 191.772 923.919 202.352 925.309 207.572C926.689 212.792 929.389 224.952 931.299 234.572C933.219 244.192 935.699 259.502 936.819 268.572C937.939 277.642 939.359 291.142 939.969 298.572C940.589 306.002 941.099 326.252 941.099 343.572C941.099 360.892 940.589 382.502 939.969 391.572C939.349 400.642 937.949 416.392 936.859 426.572C935.769 436.752 933.759 451.932 932.379 460.322C931.009 468.712 928.519 481.982 926.859 489.822C925.209 497.662 922.709 508.342 921.309 513.572C919.909 518.802 916.949 528.922 914.739 536.072C912.519 543.222 908.219 555.592 905.179 563.572C902.139 571.552 896.199 585.272 891.969 594.072C887.739 602.872 881.649 614.572 878.429 620.072C875.219 625.572 868.769 635.692 864.099 642.572C859.419 649.442 852.179 659.342 847.999 664.572C843.809 669.802 834.089 680.532 826.389 688.422C818.679 696.312 807.949 706.442 802.529 710.922C797.109 715.402 788.339 722.202 783.029 726.022C777.719 729.842 768.649 735.852 762.879 739.372C757.109 742.892 746.529 748.702 739.379 752.292C732.229 755.882 721.209 760.952 714.879 763.552C708.549 766.152 697.079 770.342 689.379 772.852C681.679 775.372 669.979 778.782 663.379 780.442C656.779 782.092 645.299 784.582 637.879 785.972C630.459 787.362 619.209 789.182 612.879 790.022C606.549 790.852 596.209 792.062 589.879 792.702C582.009 793.512 538.459 794.012 451.879 794.302C366.049 794.592 318.949 794.362 305.379 793.602C294.379 792.992 278.399 791.602 269.879 790.512C261.359 789.422 247.849 787.202 239.879 785.572C231.909 783.952 219.309 780.822 211.879 778.622C204.449 776.432 193.199 772.662 186.879 770.252C180.559 767.842 170.199 763.372 163.879 760.322C157.559 757.262 147.429 751.752 141.379 748.062C135.329 744.382 125.429 737.632 119.379 733.072C113.329 728.502 103.909 720.562 98.4488 715.422C92.9888 710.282 84.6588 701.572 79.9388 696.072C75.2188 690.572 68.5988 682.242 65.2188 677.572C61.8488 672.902 56.0888 664.122 52.4288 658.072C48.7588 652.022 43.3588 642.122 40.4188 636.072C37.4788 630.022 33.2888 620.572 31.0988 615.072C28.9088 609.572 25.0788 598.772 22.5788 591.072C20.0888 583.372 16.6688 571.442 14.9988 564.572C13.3288 557.692 10.8388 545.992 9.4788 538.572C8.1188 531.152 6.2988 519.902 5.4488 513.572C4.5888 507.252 3.1688 495.092 2.2988 486.572C1.2788 476.572 0.518801 456.342 0.168801 429.572C-0.191199 402.752 0.0288014 381.702 0.788801 370.072C1.4288 360.172 2.6488 346.002 3.4888 338.572C4.3288 331.142 6.1388 318.552 7.4988 310.572C8.8588 302.592 11.3188 290.442 12.9588 283.572C14.6088 276.692 17.3488 266.342 19.0588 260.572C20.7688 254.802 24.1788 244.672 26.6488 238.072C29.1188 231.472 33.6988 220.672 36.8288 214.072C39.9588 207.472 45.3688 197.352 48.8488 191.572C52.3388 185.792 58.2088 177.022 61.8888 172.072C65.5788 167.122 71.7988 159.472 75.7088 155.072C79.6288 150.672 86.3288 143.992 90.5988 140.232C94.8788 136.462 101.529 131.012 105.379 128.112C109.229 125.222 115.529 120.912 119.379 118.542C123.229 116.172 131.779 111.662 138.379 108.512C144.979 105.352 155.329 101.192 161.379 99.2521C167.429 97.3121 175.309 95.0521 178.879 94.2221C182.449 93.4021 190.329 91.9621 196.379 91.0321C203.679 89.9121 213.429 89.3421 225.379 89.3521C236.739 89.3621 247.439 89.9621 254.379 90.9821C260.429 91.8821 269.649 93.6921 274.879 95.0221C280.109 96.3521 288.429 98.8521 293.379 100.592C298.329 102.322 306.879 105.932 312.379 108.622C317.879 111.312 326.429 116.142 331.379 119.362C336.329 122.582 343.759 127.932 347.879 131.262C352.009 134.582 359.879 142.012 365.379 147.772C370.879 153.522 378.759 162.822 382.879 168.422C387.009 174.032 393.649 184.342 397.649 191.342C401.659 198.342 407.019 209.022 409.569 215.072C412.129 221.122 416.119 231.692 418.449 238.572C420.779 245.442 424.289 257.592 426.269 265.572C428.239 273.552 430.949 286.592 432.289 294.572C433.629 302.552 435.219 313.342 435.829 318.572C436.429 323.802 437.479 335.562 438.149 344.732C439.299 360.282 439.539 361.552 441.879 364.002C443.259 365.442 445.729 366.882 447.379 367.202C449.209 367.552 451.649 367.152 453.629 366.182C455.419 365.292 457.269 363.782 457.749 362.822C458.219 361.862 458.879 341.942 459.209 318.572C459.529 295.192 460.279 269.772 460.869 262.072C461.459 254.372 462.839 240.642 463.949 231.572C465.059 222.502 467.279 208.322 468.899 200.072C470.519 191.822 473.389 179.442 475.269 172.572C477.149 165.692 480.789 154.222 483.359 147.072C485.929 139.922 491.109 127.772 494.879 120.072C498.639 112.372 504.509 101.792 507.919 96.5721C511.329 91.3421 517.159 83.2421 520.879 78.5721C524.599 73.8921 533.229 64.6721 540.059 58.0721C546.899 51.4721 556.739 43.0521 561.929 39.3621C567.129 35.6721 576.109 29.9421 581.879 26.6221C587.649 23.3021 598.009 18.2921 604.879 15.4921C611.759 12.6921 623.229 8.89213 630.379 7.06213C637.529 5.22213 648.549 3.02213 654.879 2.17213C661.209 1.32213 668.179 0.432127 670.379 0.202127C672.579 -0.037873 681.799 -0.067873 690.879 0.132127ZM651.379 99.9021C648.079 100.772 643.579 102.222 641.379 103.112C639.179 104.012 634.229 106.332 630.379 108.272C626.529 110.212 620.459 113.942 616.879 116.582C613.299 119.212 606.989 124.902 602.849 129.222C598.719 133.542 592.939 140.672 590.029 145.072C587.119 149.472 582.549 157.572 579.879 163.072C577.219 168.572 573.239 178.472 571.049 185.072C568.859 191.672 565.909 202.252 564.489 208.572C563.079 214.892 561.039 225.922 559.949 233.072C558.869 240.222 557.449 251.252 556.789 257.572C556.099 264.312 555.319 296.572 554.919 335.572C554.319 393.392 554.009 402.852 552.549 408.072C551.619 411.372 548.849 418.232 546.369 423.322C542.689 430.902 540.389 434.062 533.629 440.822C529.089 445.362 522.459 450.772 518.879 452.852C515.299 454.922 508.779 457.842 504.379 459.322L496.379 462.022C424.349 462.582 408.269 462.322 403.879 461.552C400.309 460.932 394.229 459.202 390.379 457.712C386.529 456.212 380.679 453.212 377.379 451.032C374.079 448.862 368.509 444.152 364.999 440.572C361.479 437.002 356.869 431.142 354.749 427.572C352.619 424.002 349.709 417.472 348.269 413.072C346.029 406.212 345.529 402.352 344.789 386.072C344.309 375.622 343.449 359.642 342.879 350.572C342.309 341.502 340.929 327.772 339.819 320.072C338.699 312.372 336.649 300.892 335.269 294.572C333.879 288.252 330.719 277.002 328.249 269.572C325.779 262.142 321.809 252.022 319.429 247.072C317.049 242.122 312.409 234.022 309.109 229.072C305.819 224.122 299.919 216.812 295.999 212.822C292.079 208.832 286.069 203.692 282.629 201.392C279.189 199.082 272.779 195.492 268.379 193.402C263.979 191.302 256.779 188.662 252.379 187.522C247.359 186.222 239.529 185.242 231.379 184.882C223.409 184.532 214.899 184.772 209.379 185.522C204.429 186.192 196.779 187.882 192.379 189.272C187.979 190.672 180.999 193.502 176.879 195.562C172.759 197.632 165.779 202.012 161.379 205.302C156.979 208.602 151.179 213.722 148.499 216.682C145.809 219.642 141.549 224.772 139.019 228.072C136.489 231.372 132.039 238.122 129.129 243.072C126.219 248.022 121.849 256.802 119.419 262.572C116.999 268.342 113.829 276.672 112.399 281.072C110.969 285.472 108.479 294.252 106.879 300.572C105.289 306.892 102.859 318.592 101.489 326.572C100.119 334.552 98.2688 348.502 97.3788 357.572C96.4788 366.642 95.4988 387.572 95.1788 404.072C94.8388 422.032 95.0788 442.292 95.7688 454.572C96.4088 465.842 97.6088 481.142 98.4388 488.572C99.2688 496.002 101.069 508.592 102.439 516.572C103.809 524.552 106.329 536.692 108.039 543.572C109.739 550.442 112.929 561.242 115.119 567.572C117.309 573.902 121.669 584.472 124.809 591.072C127.949 597.672 132.899 606.902 135.809 611.572C138.719 616.242 143.919 623.672 147.379 628.072C150.829 632.472 157.419 639.712 162.019 644.162C166.619 648.622 174.199 655.072 178.879 658.512C183.559 661.952 191.319 666.972 196.129 669.672C200.939 672.362 209.719 676.642 215.629 679.162C221.539 681.692 231.559 685.242 237.879 687.062C244.199 688.872 254.109 691.302 259.879 692.452C265.649 693.602 275.559 695.302 281.879 696.252C292.179 697.782 307.419 698.002 428.379 698.342C524.929 698.612 567.789 698.392 578.879 697.562C587.399 696.922 601.359 695.302 609.879 693.972C618.399 692.632 631.009 690.152 637.879 688.462C644.759 686.772 655.109 683.802 660.879 681.872C666.649 679.932 676.549 676.122 682.879 673.412C689.209 670.692 697.979 666.502 702.379 664.102C706.779 661.712 714.649 656.952 719.879 653.542C725.109 650.122 733.429 644.042 738.379 640.022C743.329 635.992 750.159 630.092 753.559 626.892C756.959 623.692 762.529 617.922 765.939 614.072C769.339 610.222 775.179 603.022 778.899 598.072C782.619 593.122 788.949 583.672 792.959 577.072C796.969 570.472 803.039 559.222 806.449 552.072C809.859 544.922 814.929 532.992 817.699 525.572C820.479 518.152 824.599 505.552 826.859 497.572C829.119 489.592 832.509 475.422 834.389 466.072C836.269 456.722 838.709 442.772 839.809 435.072C840.919 427.372 842.599 412.752 843.539 402.572C844.789 389.162 845.279 373.752 845.319 346.572C845.359 322.502 844.919 304.592 844.079 296.572C843.369 289.692 841.679 276.872 840.339 268.072C838.989 259.272 836.349 245.772 834.459 238.072C832.569 230.372 829.669 219.792 827.999 214.572C826.329 209.342 823.099 200.572 820.809 195.072C818.529 189.572 814.739 181.252 812.389 176.572C810.049 171.892 804.949 163.342 801.079 157.572C797.199 151.792 791.409 144.132 788.209 140.542C784.999 136.952 779.229 131.162 775.379 127.682C771.529 124.202 765.459 119.432 761.879 117.082C758.299 114.722 752.229 111.232 748.379 109.312C744.529 107.392 737.999 104.612 733.879 103.122C729.759 101.632 722.329 99.5221 717.379 98.4221C710.909 96.9921 703.459 96.3221 690.879 96.0321C679.139 95.7721 670.749 96.0821 665.379 96.9821C660.979 97.7221 654.679 99.0321 651.379 99.9021ZM219.879 810.672C223.449 810.632 229.309 811.302 232.879 812.152C236.449 813.002 242.489 815.352 246.279 817.382C250.679 819.732 255.409 823.432 259.309 827.572C262.679 831.152 266.669 836.552 268.169 839.572C269.669 842.602 271.569 847.552 272.379 850.572C273.189 853.602 273.869 859.902 273.879 864.572C273.889 869.492 273.219 875.392 272.289 878.572C271.409 881.602 269.269 886.762 267.529 890.052C265.799 893.352 261.679 898.762 258.379 902.092C255.079 905.412 249.679 909.552 246.379 911.282C243.079 913.012 237.009 915.362 232.879 916.502C228.759 917.642 223.129 918.582 220.379 918.582C217.629 918.582 212.119 917.672 208.129 916.572C204.139 915.472 198.969 913.622 196.629 912.462C194.289 911.292 189.949 908.482 186.989 906.212C184.019 903.932 179.529 899.152 176.999 895.572C174.469 892.002 171.339 886.152 170.029 882.572C168.459 878.282 167.479 873.022 167.159 867.072C166.789 860.472 167.119 856.342 168.369 851.572C169.309 848.002 171.449 842.372 173.119 839.072C174.909 835.552 178.899 830.372 182.769 826.542C186.409 822.952 192.079 818.592 195.379 816.852C198.679 815.102 204.079 813.012 207.379 812.212C210.679 811.402 216.309 810.712 219.879 810.672ZM719.879 810.672C723.459 810.632 729.189 811.272 732.629 812.082C736.069 812.902 741.689 814.982 745.129 816.712C748.869 818.602 754.029 822.502 757.989 826.462C761.949 830.422 765.849 835.582 767.739 839.322C769.469 842.762 771.559 848.162 772.389 851.322C773.209 854.482 773.889 860.222 773.889 864.072C773.889 867.922 773.199 873.772 772.359 877.072C771.519 880.372 769.389 886.002 767.629 889.572C765.649 893.562 762.079 898.382 758.349 902.072C755.009 905.372 749.599 909.502 746.329 911.252C743.059 912.992 737.009 915.362 732.879 916.502C728.759 917.642 723.129 918.582 720.379 918.582C717.629 918.582 712.009 917.642 707.879 916.502C703.759 915.362 697.679 912.992 694.379 911.252C691.079 909.502 685.679 905.372 682.379 902.072C679.079 898.772 674.949 893.372 673.189 890.072C671.439 886.772 669.299 881.372 668.439 878.072C667.579 874.772 666.869 868.362 666.869 863.822C666.879 858.032 667.559 853.412 669.159 848.322C670.409 844.332 672.849 838.822 674.579 836.072C676.309 833.322 680.349 828.552 683.559 825.472C686.759 822.392 692.189 818.452 695.629 816.722C699.069 814.992 704.469 812.932 707.629 812.152C710.789 811.372 716.299 810.712 719.879 810.672Z" fill="#FF8300"/>
</svg>
