<svg width="2834" height="672" viewBox="0 0 2834 672" fill="none" xmlns="http://www.w3.org/2000/svg">
<path fill-rule="evenodd" clip-rule="evenodd" d="M1384.43 0.281715C1391.71 0.561715 1395.56 1.27172 1400.93 3.34172C1404.78 4.82172 1410.63 7.97172 1413.93 10.3317C1417.23 12.6917 1421.79 17.0417 1424.07 20.0117C1426.34 22.9717 1429.11 27.2017 1430.21 29.4017C1431.32 31.6017 1433.03 36.1017 1434.02 39.4017C1435.18 43.3017 1435.79 48.5417 1435.77 54.4017C1435.74 61.5417 1435.18 64.9517 1433.06 70.9017C1431.6 75.0317 1428.94 80.6117 1427.16 83.3217C1425.38 86.0317 1421.41 90.5317 1418.32 93.3217C1415.24 96.1117 1409.84 99.8117 1406.32 101.542C1402.81 103.262 1397.46 105.252 1394.43 105.962C1391.4 106.672 1385.33 107.212 1380.93 107.152C1375.96 107.092 1370.47 106.292 1366.43 105.022C1362.86 103.912 1357.23 101.242 1353.93 99.1017C1350.63 96.9617 1345.64 92.7817 1342.84 89.8017C1340.03 86.8317 1336.32 81.5917 1334.59 78.1517C1332.85 74.7117 1330.71 68.8617 1329.82 65.1517C1328.71 60.4717 1328.38 55.9417 1328.75 50.4017C1329.08 45.5217 1330.29 39.6717 1331.84 35.4017C1333.25 31.5517 1336.09 25.9717 1338.16 22.9917C1340.24 20.0217 1344.18 15.6117 1346.93 13.2017C1349.68 10.7917 1354.63 7.49172 1357.93 5.88172C1361.23 4.26172 1366.4 2.25172 1369.43 1.42172C1373.16 0.391717 1377.99 0.0317154 1384.43 0.281715ZM1926.43 0.00171661C1930 -0.0382834 1935.86 0.631716 1939.43 1.48172C1943 2.33172 1949.04 4.68172 1952.83 6.71172C1957.23 9.06172 1961.96 12.7617 1965.86 16.9017C1969.23 20.4817 1973.22 25.8817 1974.72 28.9017C1976.22 31.9317 1978.12 36.8817 1978.93 39.9017C1979.74 42.9317 1980.4 49.4517 1980.39 54.4017C1980.38 61.0517 1979.8 65.1117 1978.15 69.9317C1976.93 73.5317 1974.36 79.0617 1972.43 82.2317C1970.5 85.4017 1967.13 89.7417 1964.93 91.8917C1962.73 94.0317 1958.23 97.4017 1954.93 99.3817C1951.63 101.352 1946 103.892 1942.43 105.022C1938.13 106.382 1933.05 107.092 1927.43 107.142C1922.12 107.182 1916.68 106.552 1912.93 105.462C1909.63 104.512 1904.28 102.302 1901.04 100.562C1897.8 98.8217 1893.05 95.3817 1890.48 92.9017C1887.91 90.4317 1884.16 85.9317 1882.15 82.9017C1880.13 79.8817 1877.53 74.7017 1876.36 71.4017C1875.09 67.8017 1874.03 61.8017 1873.73 56.4017C1873.35 49.7917 1873.66 45.6717 1874.91 40.9017C1875.84 37.3317 1878.01 31.7017 1879.74 28.4017C1881.46 25.1017 1885.81 19.4417 1889.4 15.8217C1893.82 11.3717 1898.19 8.14172 1902.93 5.84172C1906.78 3.97172 1912.18 1.91172 1914.93 1.26172C1917.68 0.601717 1922.86 0.0417166 1926.43 0.00171661ZM2780.43 0.00171661C2784 -0.0382834 2789.86 0.631716 2793.43 1.48172C2797 2.33172 2803.04 4.68172 2806.83 6.71172C2811.21 9.05172 2815.98 12.7717 2819.88 16.9017C2823.4 20.6317 2827.36 26.1717 2829.16 29.9017C2830.89 33.4817 2832.77 38.4317 2833.34 40.9017C2833.91 43.3817 2834.38 49.4517 2834.38 54.4017C2834.38 61.0717 2833.8 65.0917 2832.15 69.9317C2830.93 73.5317 2828.36 79.0917 2826.43 82.2917C2824.5 85.4917 2820.46 90.3717 2817.43 93.1417C2814.4 95.9017 2809.46 99.4017 2806.43 100.922C2803.4 102.442 2798.23 104.482 2794.93 105.442C2791.42 106.472 2785.61 107.192 2780.93 107.192C2776.31 107.192 2770.4 106.462 2766.93 105.462C2763.63 104.502 2758.28 102.302 2755.04 100.562C2751.8 98.8217 2747.05 95.3817 2744.48 92.9017C2741.91 90.4317 2738.16 85.9317 2736.15 82.9017C2734.13 79.8817 2731.53 74.7017 2730.37 71.4017C2729.17 67.9917 2728.03 61.7317 2727.74 56.9017C2727.38 50.8917 2727.71 46.3517 2728.88 41.4017C2729.8 37.5517 2731.97 31.7017 2733.71 28.4017C2735.45 25.1017 2739.81 19.4417 2743.4 15.8217C2747.82 11.3717 2752.19 8.14172 2756.93 5.84172C2760.78 3.97172 2766.18 1.91172 2768.93 1.26172C2771.68 0.601717 2776.86 0.0417166 2780.43 0.00171661ZM233.932 140.062C238.332 139.982 249.352 140.372 258.432 140.922C267.512 141.472 281.232 142.852 288.932 143.982C296.632 145.112 308.782 147.532 315.932 149.372C323.082 151.202 333.432 154.372 338.932 156.432C344.432 158.482 353.432 162.412 358.932 165.162C364.432 167.922 372.312 172.432 376.432 175.202C380.562 177.962 387.462 183.192 391.772 186.812C396.082 190.432 401.742 195.882 404.352 198.902C406.962 201.932 411.092 207.102 413.522 210.402C415.962 213.702 420.252 220.902 423.062 226.402C425.872 231.902 429.352 240.002 430.782 244.402C432.212 248.802 434.062 255.332 434.882 258.902C435.712 262.482 436.822 270.802 437.362 277.402C438.002 285.212 438.002 293.242 437.362 300.402C436.822 306.452 435.492 315.112 434.412 319.652C433.322 324.192 431.252 330.712 429.802 334.152C428.352 337.592 425.482 343.102 423.402 346.402C421.332 349.702 416.082 355.782 411.742 359.902C406.592 364.802 401.092 368.842 395.892 371.552C391.512 373.832 384.222 376.872 379.682 378.302C375.142 379.732 367.492 381.362 362.682 381.912C357.872 382.472 351.012 383.262 347.432 383.662C341.692 384.312 340.902 384.662 340.682 386.652C340.532 387.982 341.142 389.252 342.182 389.762C343.142 390.242 350.012 390.912 357.432 391.262C364.852 391.612 375.212 392.762 380.432 393.812C385.652 394.862 394.212 397.102 399.432 398.792C404.652 400.472 412.532 403.702 416.932 405.962C421.332 408.222 427.852 412.242 431.432 414.892C435.012 417.542 440.452 422.342 443.532 425.552C446.602 428.772 451.342 434.782 454.062 438.902C456.772 443.032 460.412 449.782 462.142 453.902C463.882 458.032 466.402 465.682 467.762 470.902C469.112 476.132 470.792 485.572 471.472 491.902C472.222 498.792 472.502 508.812 472.172 516.902C471.852 524.502 470.672 534.992 469.462 540.902C468.282 546.682 465.952 555.452 464.302 560.402C462.642 565.352 459.382 573.232 457.052 577.902C454.732 582.572 450.872 589.322 448.472 592.902C446.072 596.482 441.092 603.002 437.402 607.402C433.712 611.802 426.922 618.592 422.312 622.492C417.702 626.402 410.562 631.822 406.432 634.552C402.312 637.292 396.342 640.962 393.182 642.712C390.022 644.462 382.592 647.962 376.682 650.482C370.772 653.002 360.982 656.562 354.932 658.382C348.882 660.212 338.312 662.862 331.432 664.272C324.562 665.682 313.082 667.592 305.932 668.522C297.102 669.672 285.072 670.242 268.432 670.302C253.342 670.362 240.472 669.912 234.932 669.122C229.982 668.422 221.212 666.912 215.432 665.772C209.652 664.632 199.762 662.012 193.432 659.942C187.102 657.882 177.882 654.302 172.932 651.992C167.982 649.682 159.652 644.932 154.432 641.452C149.212 637.962 141.622 631.802 137.572 627.752C133.532 623.712 128.262 617.482 125.872 613.902C123.492 610.322 120.132 603.572 118.412 598.902C116.442 593.522 114.862 586.642 112.932 569.892L106.432 569.902V670.902H0.932129L0.252075 504.652C-0.167925 400.852 -0.0578858 332.952 0.542114 323.902C1.07211 315.932 2.18208 304.902 3.00208 299.402C3.82208 293.902 5.44217 285.352 6.60217 280.402C7.75217 275.452 10.4821 266.232 12.6521 259.902C14.8321 253.582 19.0122 243.682 21.9622 237.902C24.9022 232.132 30.1521 223.352 33.6221 218.402C37.0921 213.452 44.6521 204.672 50.4321 198.902C56.2121 193.122 65.1021 185.472 70.2021 181.902C75.3021 178.322 83.8521 173.052 89.2021 170.182C94.5521 167.322 103.652 163.112 109.432 160.842C115.212 158.572 125.102 155.222 131.432 153.392C137.762 151.572 148.892 148.912 156.182 147.492C163.472 146.072 175.172 144.202 182.182 143.352C189.192 142.502 201.902 141.442 210.432 141.002C218.962 140.562 229.532 140.142 233.932 140.062ZM186.432 244.352C181.212 245.252 172.212 247.552 166.432 249.462C160.652 251.372 152.562 254.892 148.432 257.282C144.312 259.672 138.272 264.052 135.022 267.012C131.782 269.982 126.922 275.552 124.242 279.402C121.562 283.252 118.052 289.552 116.452 293.402C114.852 297.252 112.642 304.232 111.532 308.902C110.422 313.582 109.042 322.132 108.472 327.902C107.872 333.852 107.432 361.592 107.452 391.902C107.472 421.332 107.922 449.902 108.452 455.402C108.982 460.902 110.142 469.002 111.042 473.402C111.932 477.802 113.872 485.002 115.352 489.402C116.842 493.802 120.062 501.232 122.522 505.902C124.982 510.572 129.062 517.102 131.582 520.402C134.102 523.702 139.482 529.532 143.542 533.352C147.612 537.172 153.852 542.172 157.432 544.472C161.012 546.762 166.182 549.782 168.932 551.172C171.682 552.562 177.422 555.102 181.682 556.802C185.942 558.512 193.822 561.052 199.182 562.462C204.542 563.872 214.782 565.902 221.932 566.982C229.082 568.072 243.262 569.232 253.432 569.562C264.922 569.942 276.472 569.732 283.932 569.002C290.532 568.362 301.102 566.672 307.432 565.262C313.762 563.852 322.762 561.152 327.432 559.262C332.102 557.372 339.082 553.862 342.932 551.452C346.782 549.052 352.682 544.232 356.032 540.742C359.392 537.252 363.392 531.932 364.922 528.902C366.452 525.882 368.342 521.602 369.122 519.402C369.902 517.202 370.962 512.032 371.482 507.902C372.102 503.022 372.082 497.612 371.432 492.402C370.732 486.842 369.362 482.192 366.922 477.152C364.812 472.772 361.352 467.802 358.182 464.592C355.292 461.672 350.012 457.642 346.432 455.652C342.852 453.662 336.562 450.902 332.432 449.522C328.312 448.142 320.882 446.252 315.932 445.322C309.132 444.052 298.242 443.482 271.432 442.992C236.152 442.352 235.902 442.332 230.432 439.802C227.402 438.402 223.352 435.882 221.432 434.212C219.512 432.532 216.732 428.972 215.272 426.282C213.802 423.602 212.112 418.702 211.512 415.402C210.912 412.102 210.422 403.552 210.432 396.402C210.442 389.252 210.902 380.702 211.452 377.402C212.012 374.102 213.472 369.442 214.702 367.042C215.932 364.632 218.962 360.832 221.432 358.592C223.902 356.342 227.962 353.622 230.432 352.552C233.942 351.032 238.682 350.412 251.932 349.752C261.282 349.282 272.982 348.192 277.932 347.332C282.882 346.482 290.982 344.422 295.932 342.772C300.882 341.112 307.632 338.112 310.932 336.102C314.232 334.102 318.842 330.532 321.182 328.182C323.522 325.822 326.782 321.202 328.432 317.902C330.162 314.432 331.852 308.942 332.432 304.902C333.112 300.152 333.092 295.572 332.392 290.652C331.752 286.232 330.092 280.882 328.142 276.962C326.342 273.372 322.482 268.072 319.382 264.962C315.792 261.362 310.692 257.762 304.882 254.752C299.962 252.192 292.782 249.132 288.932 247.952C285.082 246.762 276.762 244.872 270.432 243.752C261.622 242.182 253.562 241.622 235.932 241.372C223.282 241.202 209.102 241.422 204.432 241.882C199.762 242.332 191.652 243.442 186.432 244.352ZM457.932 140.062C462.332 139.982 472.462 140.382 480.432 140.942C488.402 141.512 499.652 142.652 505.432 143.482C511.212 144.312 521.782 146.382 528.932 148.072C536.082 149.772 547.102 152.962 553.432 155.162C559.762 157.362 568.982 161.042 573.932 163.342C578.882 165.632 587.212 170.032 592.432 173.112C597.652 176.192 605.532 181.392 609.932 184.682C614.332 187.962 621.482 193.962 625.822 198.022C630.162 202.082 636.502 208.782 639.922 212.902C643.332 217.032 647.962 223.102 650.192 226.402C652.432 229.702 655.912 235.332 657.922 238.902C659.942 242.482 663.072 248.782 664.882 252.902C666.692 257.032 669.582 264.682 671.292 269.902C673.012 275.132 675.322 283.902 676.442 289.402C677.552 294.902 678.992 305.702 679.642 313.402C680.532 324.062 680.532 330.862 679.652 341.902C679.012 349.882 677.562 360.902 676.422 366.402C675.292 371.902 672.862 380.902 671.022 386.402C669.182 391.902 665.762 400.232 663.422 404.902C661.072 409.582 657.032 416.552 654.432 420.402C651.842 424.252 647.062 430.492 643.822 434.282C640.582 438.062 634.782 443.832 630.932 447.102C627.082 450.362 621.012 455.002 617.432 457.402C613.852 459.792 606.882 463.772 601.932 466.222C596.982 468.682 588.652 472.082 583.432 473.772C578.212 475.472 569.882 477.552 564.932 478.392C559.982 479.232 554.472 479.922 552.682 479.912C549.682 479.902 549.432 480.152 549.412 486.402L557.172 487.132C561.442 487.532 568.982 489.012 573.932 490.422C578.882 491.822 586.762 494.792 591.432 497.022C596.102 499.242 603.082 503.152 606.932 505.712C610.782 508.262 617.912 514.192 622.772 518.882C627.632 523.572 634.012 531.002 636.952 535.402C639.882 539.802 658.522 571.862 678.362 606.652C698.202 641.442 714.432 670.132 714.432 670.402C714.432 670.682 687.092 670.892 592.932 670.882L565.052 622.142C549.722 595.332 535.772 570.982 534.052 568.032C532.342 565.082 528.012 559.512 524.432 555.662C520.852 551.812 515.012 546.722 511.432 544.362C507.852 542.002 501.562 538.702 489.932 534.022L489.872 510.212C489.822 489.412 489.522 485.012 487.522 475.402C486.262 469.352 483.892 460.582 482.242 455.902C480.602 451.232 477.272 443.692 474.842 439.152C471.012 431.982 470.662 430.852 472.182 430.482C473.142 430.252 477.082 429.762 480.932 429.382C484.782 429.012 493.102 427.402 499.432 425.822C507.562 423.782 514.452 421.172 522.932 416.922C529.532 413.622 537.852 408.532 541.432 405.612C545.012 402.692 550.542 397.172 553.732 393.352C556.922 389.532 561.512 382.352 563.932 377.402C566.352 372.452 569.012 365.702 569.832 362.402C570.662 359.102 571.862 352.132 572.492 346.902C573.142 341.532 573.352 333.922 572.972 329.402C572.602 325.002 571.612 318.032 570.782 313.902C569.952 309.782 567.922 303.032 566.262 298.902C564.612 294.782 561.272 288.362 558.842 284.652C556.412 280.942 552.522 275.812 550.182 273.272C547.842 270.722 543.232 266.572 539.932 264.052C536.632 261.532 530.332 257.562 525.932 255.242C521.532 252.922 513.882 249.672 508.932 248.022C503.982 246.382 495.882 244.292 490.932 243.392C485.982 242.492 474.412 241.452 448.512 240.402L446.342 234.402C445.142 231.102 442.152 224.352 439.672 219.402C437.202 214.452 432.572 206.582 429.382 201.902C426.192 197.232 419.842 189.392 415.262 184.482C410.682 179.582 403.332 172.672 398.932 169.132C394.532 165.602 387.662 160.612 383.652 158.052C379.652 155.492 376.392 153.062 376.402 152.652C376.422 152.242 379.922 151.012 384.182 149.932C388.442 148.852 394.852 147.302 398.432 146.492C402.012 145.672 410.102 144.262 416.432 143.342C422.762 142.422 432.882 141.342 438.932 140.932C444.982 140.532 453.532 140.132 457.932 140.062ZM733.432 140.062C737.012 139.972 747.132 140.362 755.932 140.922C764.732 141.482 778.012 142.832 785.432 143.912C792.852 144.992 804.562 147.252 811.432 148.912C818.312 150.582 828.882 153.582 834.932 155.572C840.982 157.562 851.562 161.642 858.432 164.632C865.312 167.622 875.652 172.792 881.432 176.112C887.212 179.442 895.532 184.682 899.932 187.772C904.332 190.862 911.752 196.582 916.432 200.482C921.112 204.392 929.432 212.272 934.932 217.992C940.432 223.722 948.482 233.132 952.822 238.902C957.152 244.682 963.372 253.902 966.632 259.402C969.892 264.902 974.492 273.452 976.862 278.402C979.222 283.352 982.792 291.562 984.792 296.652C986.792 301.742 989.992 311.192 991.912 317.652C993.822 324.112 996.282 333.682 997.372 338.902C998.462 344.132 1000.03 352.902 1000.85 358.402C1001.67 363.902 1002.87 375.602 1003.51 384.402C1004.22 394.012 1004.41 406.792 1004.01 416.402C1003.64 425.202 1002.67 438.032 1001.86 444.902C1001.05 451.782 999.232 463.032 997.812 469.902C996.402 476.782 993.682 487.572 991.772 493.902C989.872 500.232 986.272 510.572 983.782 516.902C981.282 523.232 976.762 533.132 973.732 538.902C970.702 544.682 965.452 553.672 962.072 558.902C958.692 564.122 952.522 572.672 948.362 577.902C944.202 583.122 936.552 591.642 931.362 596.832C926.172 602.022 917.652 609.682 912.432 613.852C907.212 618.022 898.882 624.102 893.932 627.362C888.982 630.622 879.532 636.082 872.932 639.502C866.332 642.912 855.752 647.752 849.432 650.262C843.112 652.762 832.312 656.432 825.432 658.402C818.562 660.382 807.532 663.082 800.932 664.412C794.332 665.742 783.532 667.502 776.932 668.312C770.332 669.132 758.402 670.102 735.932 671.142L706.432 619.372C690.212 590.902 676.062 565.982 675.002 564.002C673.102 560.442 673.102 560.412 675.002 561.042C676.062 561.392 680.762 562.802 685.432 564.172C690.102 565.552 698.212 567.432 703.432 568.352C708.652 569.272 720.132 570.282 728.932 570.592C738.502 570.932 749.352 570.682 755.932 569.982C761.982 569.332 772.102 567.652 778.432 566.242C784.762 564.832 793.532 562.352 797.932 560.732C802.332 559.102 810.652 555.302 816.432 552.282C822.212 549.252 830.492 544.222 834.832 541.092C839.182 537.962 846.602 531.542 851.332 526.812C856.062 522.092 862.772 514.222 866.242 509.312C869.712 504.412 874.962 495.682 877.892 489.902C880.822 484.132 884.652 475.352 886.402 470.402C888.142 465.452 890.432 457.802 891.482 453.402C892.542 449.002 894.102 440.452 894.952 434.402C895.892 427.732 896.502 416.312 896.502 405.402C896.502 394.252 895.882 383.022 894.882 375.902C893.992 369.582 892.222 360.352 890.942 355.402C889.672 350.452 887.222 342.582 885.512 337.902C883.792 333.232 880.262 325.242 877.662 320.152C875.062 315.072 870.002 306.782 866.432 301.732C862.862 296.682 856.062 288.692 851.332 283.982C846.602 279.262 838.962 272.702 834.342 269.402C829.732 266.102 821.002 260.902 814.942 257.852C808.892 254.802 799.652 250.892 794.432 249.162C789.212 247.442 780.432 245.122 774.932 244.002C769.432 242.882 758.632 241.442 750.932 240.792C740.352 239.892 733.392 239.882 722.432 240.732C714.462 241.352 703.652 242.752 698.432 243.842C693.212 244.932 687.582 246.242 682.932 247.682L678.072 238.042C675.402 232.742 670.732 224.582 667.712 219.902C664.682 215.232 658.772 207.162 654.572 201.992C650.372 196.812 643.262 189.162 638.782 184.992C634.302 180.812 627.012 174.702 622.582 171.402C618.152 168.102 614.502 165.062 614.472 164.652C614.452 164.242 619.272 162.072 625.182 159.832C631.092 157.592 641.102 154.262 647.432 152.432C653.762 150.602 664.562 147.972 671.432 146.592C678.312 145.212 688.212 143.532 693.432 142.872C698.652 142.202 708.332 141.322 714.932 140.932C721.532 140.532 729.852 140.142 733.432 140.062ZM1164.45 139.882L1274.93 140.402L1275.43 569.902H1489.43V670.902L1365.18 670.592C1252.63 670.302 1240.29 670.112 1234.18 668.592C1230.47 667.662 1224.17 665.762 1220.18 664.362C1216.19 662.972 1210.46 660.432 1207.43 658.722C1204.4 657.022 1199.28 653.542 1196.05 651.012C1192.81 648.472 1187.74 643.482 1184.78 639.902C1181.82 636.322 1177.76 630.252 1175.75 626.402C1173.74 622.552 1171.04 616.252 1169.73 612.402C1168.43 608.552 1166.7 601.572 1165.89 596.902C1164.61 589.572 1164.41 557.562 1164.43 364.142L1164.45 139.882ZM1328.43 139.902H1434.93L1435.68 221.652C1436.09 266.612 1436.43 350.542 1436.43 512.902H1328.43V139.902ZM1489.45 139.882L1596.93 140.402L1597.42 411.402L1604.18 410.672C1607.89 410.272 1614.53 409.012 1618.93 407.872C1623.33 406.742 1630.76 404.002 1635.43 401.782C1640.11 399.572 1646.86 395.822 1650.43 393.442C1654.01 391.062 1660.48 385.812 1664.81 381.762C1669.14 377.712 1675.04 371.252 1677.92 367.402C1680.8 363.552 1685.48 356.352 1688.32 351.402C1691.16 346.452 1695.33 337.672 1697.59 331.902C1699.85 326.122 1703.16 315.552 1704.95 308.402C1706.74 301.252 1709.03 290.222 1710.03 283.902C1711.61 273.942 1711.92 263.562 1712.93 140.402H1819.93L1820.23 183.402C1820.4 207.052 1820.05 237.202 1819.46 250.402C1818.86 263.602 1817.75 279.352 1816.98 285.402C1816.21 291.452 1814.85 300.672 1813.95 305.902C1813.05 311.122 1811.03 320.802 1809.46 327.402C1807.9 334.002 1804.51 345.702 1801.95 353.402C1799.38 361.102 1794.71 373.022 1791.58 379.902C1788.45 386.772 1782.97 397.292 1779.41 403.262C1775.85 409.242 1769.35 418.912 1764.97 424.762C1760.59 430.612 1751.82 440.592 1745.47 446.932C1739.12 453.272 1729.66 461.662 1724.43 465.572C1719.21 469.472 1711.11 475.012 1706.43 477.872C1701.76 480.732 1693.43 485.232 1687.93 487.882C1682.43 490.532 1673.43 494.362 1667.93 496.402C1662.43 498.442 1652.53 501.582 1645.93 503.392C1639.33 505.202 1628.31 507.632 1621.43 508.782C1614.56 509.932 1603.98 511.322 1597.93 511.882C1591.88 512.442 1564.99 512.902 1489.43 512.902L1489.45 139.882ZM1873.45 139.882L1980.93 140.402L1981.43 512.902H1873.43L1873.45 139.882ZM2229.94 140.572C2236.54 140.822 2247.11 141.652 2253.44 142.432C2259.76 143.202 2270.56 145.262 2277.44 146.992C2284.31 148.722 2293.76 151.602 2298.44 153.382C2303.11 155.172 2310.99 158.662 2315.94 161.142C2320.89 163.622 2328.99 168.382 2333.94 171.712C2338.89 175.042 2346.31 180.752 2350.44 184.402C2354.56 188.042 2361 194.492 2364.75 198.712C2368.5 202.942 2374.29 210.442 2377.62 215.392C2380.95 220.342 2385.87 228.782 2388.56 234.142C2391.24 239.512 2395.18 248.962 2397.3 255.142C2399.43 261.332 2402.17 270.672 2403.39 275.892C2404.61 281.122 2406.31 290.122 2407.18 295.892C2408.51 304.792 2408.8 322.152 2409.44 512.892H2301.44L2300.9 302.392L2298.6 294.892C2297.34 290.772 2294.42 283.792 2292.12 279.392C2289.16 273.732 2285.6 269.032 2279.94 263.302C2273.07 256.352 2270.45 254.482 2261.44 250.132C2255.66 247.342 2247.79 244.262 2243.94 243.282C2238.73 241.952 2232.97 241.482 2221.44 241.462C2209.63 241.442 2204.27 241.872 2198.94 243.252C2195.09 244.252 2187.89 247.002 2182.94 249.372C2176.19 252.592 2171.97 255.512 2166.08 261.032C2161.76 265.082 2156.47 271.212 2154.33 274.642C2152.19 278.082 2149.31 283.712 2147.93 287.142C2146.56 290.582 2144.67 296.542 2143.75 300.392C2142.25 306.672 2142.04 318.072 2141.44 512.892H2034.44L2034.76 405.142C2035.04 308.802 2035.26 296.492 2036.77 288.892C2037.7 284.222 2039.6 275.892 2041 270.392C2042.39 264.892 2045.59 255.222 2048.1 248.892C2050.61 242.572 2054.27 234.472 2056.23 230.892C2058.18 227.322 2062.37 220.572 2065.54 215.892C2068.7 211.222 2074.4 203.792 2078.2 199.392C2082 194.992 2088.89 188.192 2093.52 184.272C2098.15 180.352 2106.21 174.352 2111.44 170.922C2116.66 167.502 2124.99 162.762 2129.94 160.392C2134.89 158.012 2143.66 154.432 2149.44 152.422C2155.21 150.402 2164.44 147.702 2169.94 146.412C2175.44 145.122 2183.54 143.522 2187.94 142.872C2192.34 142.212 2200.89 141.322 2206.94 140.902C2212.99 140.472 2223.34 140.322 2229.94 140.572ZM2630.44 140.092C2632.36 139.992 2640.24 140.362 2647.94 140.912C2655.64 141.462 2666.89 142.792 2672.94 143.862C2678.99 144.942 2688.55 147.192 2694.19 148.862C2699.82 150.532 2708.6 153.692 2713.69 155.902C2718.77 158.102 2726.54 161.992 2730.94 164.542C2735.34 167.102 2742.31 171.692 2746.44 174.762C2750.56 177.822 2757.76 184.212 2762.44 188.942C2767.11 193.682 2773.5 201.122 2776.63 205.482C2779.75 209.832 2784.61 217.892 2787.41 223.392C2790.22 228.892 2794.03 238.122 2795.88 243.892C2797.73 249.672 2799.96 257.992 2800.84 262.392C2801.72 266.792 2802.88 275.792 2803.42 282.392C2804.04 290.022 2804.06 298.952 2803.47 306.892C2802.96 313.772 2801.81 322.992 2800.92 327.392C2800.03 331.792 2797.81 339.892 2795.99 345.392C2794.17 350.892 2791.1 358.542 2789.15 362.392C2787.21 366.242 2783.24 372.772 2780.33 376.892C2777.41 381.022 2772.08 387.322 2768.47 390.892C2764.86 394.472 2758.32 399.772 2753.92 402.672C2749.53 405.572 2742.34 409.322 2737.94 411.012C2733.54 412.692 2727.46 414.372 2724.44 414.732C2719.35 415.342 2718.92 415.602 2718.69 418.142C2718.45 420.792 2718.64 420.912 2724.19 421.492C2727.35 421.812 2732.75 422.712 2736.19 423.492C2739.62 424.262 2745.92 426.232 2750.19 427.872C2754.45 429.502 2761.53 433.212 2765.92 436.122C2770.31 439.022 2776.61 444.112 2779.92 447.422C2783.23 450.742 2788.17 456.822 2790.9 460.922C2793.63 465.032 2797.33 471.992 2799.12 476.392C2800.91 480.792 2803.38 488.672 2804.61 493.892C2806.49 501.902 2806.84 506.302 2806.85 521.892C2806.86 535.462 2806.37 543.062 2805.04 550.392C2804.05 555.892 2801.46 565.792 2799.29 572.392C2797.12 578.992 2793.23 588.382 2790.64 593.252C2788.05 598.122 2783.18 605.772 2779.82 610.252C2776.46 614.732 2769.71 622.172 2764.82 626.782C2759.93 631.402 2751.66 638.012 2746.44 641.482C2741.21 644.942 2732.66 649.782 2727.44 652.222C2722.21 654.662 2712.99 658.242 2706.94 660.182C2700.89 662.122 2691.66 664.612 2686.44 665.722C2681.21 666.822 2672.66 668.322 2667.44 669.042C2661.84 669.822 2648.9 670.352 2635.94 670.322C2620.09 670.302 2610.72 669.792 2602.44 668.522C2596.11 667.552 2587.34 665.922 2582.94 664.892C2578.54 663.862 2570.66 661.602 2565.44 659.862C2560.21 658.122 2551.89 654.762 2546.94 652.392C2541.99 650.032 2533.66 645.272 2528.44 641.832C2523.21 638.382 2514.66 631.412 2509.44 626.332C2504.21 621.262 2497.38 613.572 2494.25 609.252C2491.13 604.932 2486.33 597.122 2483.58 591.892C2480.84 586.672 2477.04 577.892 2475.13 572.392C2473.23 566.892 2470.74 557.892 2469.59 552.392C2468.45 546.892 2467.05 537.442 2466.48 531.392C2465.91 525.342 2465.44 518.712 2465.44 512.892H2565.44L2565.93 517.642C2566.19 520.262 2567.09 525.992 2567.91 530.392C2568.73 534.792 2570.83 541.322 2572.59 544.892C2574.6 548.992 2578.21 553.842 2582.36 558.002C2586.72 562.382 2591.38 565.842 2596.19 568.252C2600.17 570.252 2607.37 572.872 2612.19 574.072C2619.21 575.822 2623.89 576.252 2635.94 576.262C2646.28 576.262 2653.27 575.752 2658.44 574.602C2662.56 573.692 2669.99 570.962 2674.94 568.532C2681.28 565.422 2685.71 562.372 2689.94 558.202C2693.42 554.762 2697.48 549.362 2699.6 545.332C2701.62 541.522 2704.04 535.472 2704.99 531.892C2706.12 527.662 2706.75 521.382 2706.8 513.892C2706.86 505.492 2706.39 500.782 2705.07 496.392C2704.07 493.092 2702.06 488.192 2700.6 485.512C2699.13 482.822 2695.24 478.132 2691.94 475.082C2688.57 471.972 2682.87 468.102 2678.94 466.242C2675.09 464.422 2668.34 462.002 2663.94 460.862C2658.05 459.342 2649.21 458.422 2630.44 457.382C2616.41 456.602 2600.89 455.252 2595.94 454.382C2590.99 453.512 2583.56 451.952 2579.44 450.902C2575.31 449.852 2567.89 447.582 2562.94 445.842C2557.99 444.112 2548.99 440.152 2542.94 437.062C2536.89 433.962 2528.56 429.002 2524.44 426.032C2520.31 423.072 2514.27 418.332 2511.01 415.522C2507.75 412.702 2502.19 407.022 2498.66 402.892C2495.13 398.772 2490.01 392.022 2487.27 387.892C2484.54 383.772 2480.35 376.342 2477.97 371.392C2475.59 366.442 2472.07 357.442 2470.15 351.392C2468.23 345.342 2465.82 335.892 2464.79 330.392C2463.35 322.632 2462.94 315.592 2462.94 298.892C2462.94 282.222 2463.35 275.152 2464.79 267.392C2465.81 261.892 2468.38 251.992 2470.5 245.392C2472.63 238.792 2476.66 228.892 2479.47 223.392C2482.27 217.892 2486.67 210.472 2489.24 206.892C2491.8 203.322 2496.41 197.472 2499.47 193.892C2502.54 190.322 2508.84 184.202 2513.49 180.302C2518.14 176.402 2524.64 171.392 2527.94 169.172C2531.24 166.952 2538.44 162.882 2543.94 160.112C2549.44 157.352 2558.44 153.522 2563.94 151.602C2569.44 149.692 2579.11 146.972 2585.44 145.572C2591.76 144.172 2601.21 142.542 2606.44 141.942C2611.66 141.352 2618.41 140.732 2621.44 140.562C2624.46 140.402 2628.51 140.182 2630.44 140.092ZM2595.69 242.632C2589.97 245.392 2585.94 248.332 2580.32 253.882C2574.62 259.512 2571.8 263.282 2569.1 268.892C2567.11 273.022 2564.8 279.882 2563.96 284.142C2563.12 288.412 2562.44 295.162 2562.45 299.142C2562.46 303.132 2563.13 309.542 2563.94 313.392C2564.74 317.242 2567.29 324.222 2569.61 328.892C2572.67 335.082 2575.6 339.172 2580.38 343.902C2584.33 347.832 2589.72 351.862 2593.94 354.062C2597.79 356.072 2604.31 358.762 2608.44 360.052C2615.2 362.162 2617.81 362.392 2634.94 362.392C2650.13 362.392 2655.54 362.012 2661.94 360.492C2666.34 359.452 2673.31 356.902 2677.44 354.832C2681.99 352.542 2686.74 349.162 2689.52 346.232C2692.05 343.572 2695.54 338.582 2697.27 335.142C2699.01 331.712 2701.12 326.082 2701.95 322.642C2702.79 319.212 2703.75 311.222 2704.09 304.892C2704.57 296.062 2704.32 291.422 2703.02 284.892C2702.06 280.122 2699.71 273.112 2697.64 268.892C2695.08 263.682 2691.83 259.222 2686.95 254.272C2681.31 248.552 2678.08 246.262 2670.44 242.592C2664.96 239.952 2657.66 237.352 2653.19 236.452C2648.32 235.472 2640.5 234.922 2632.19 234.972C2622.65 235.022 2616.76 235.582 2611.19 236.972C2606.92 238.032 2599.95 240.572 2595.69 242.632Z" fill="black"/>
</svg>
